<svg width="311" height="380" viewBox="0 0 311 380" fill="none" xmlns="http://www.w3.org/2000/svg">
<rect width="311" height="380" fill="black"/>
<path d="M97.8096 93.1533C97.8096 96.0342 97.5817 98.6058 97.126 100.868C96.6865 103.131 95.9704 105.051 94.9775 106.63C94.001 108.209 92.7152 109.413 91.1201 110.243C89.5251 111.073 87.5882 111.488 85.3096 111.488C82.445 111.488 80.0931 110.764 78.2539 109.315C76.4147 107.851 75.0557 105.751 74.1768 103.017C73.2979 100.266 72.8584 96.9782 72.8584 93.1533C72.8584 89.2959 73.2572 86 74.0547 83.2656C74.8685 80.515 76.1868 78.4072 78.0098 76.9424C79.8327 75.4775 82.266 74.7451 85.3096 74.7451C88.1579 74.7451 90.5016 75.4775 92.3408 76.9424C94.1963 78.391 95.5716 80.4906 96.4668 83.2412C97.362 85.9756 97.8096 89.2796 97.8096 93.1533ZM80.3535 93.1533C80.3535 95.8714 80.5 98.1419 80.793 99.9648C81.1022 101.771 81.6149 103.131 82.3311 104.042C83.0472 104.953 84.04 105.409 85.3096 105.409C86.5628 105.409 87.5475 104.962 88.2637 104.066C88.9961 103.155 89.5169 101.796 89.8262 99.9893C90.1354 98.1663 90.29 95.8877 90.29 93.1533C90.29 90.4352 90.1354 88.1647 89.8262 86.3418C89.5169 84.5189 88.9961 83.1517 88.2637 82.2402C87.5475 81.3125 86.5628 80.8486 85.3096 80.8486C84.04 80.8486 83.0472 81.3125 82.3311 82.2402C81.6149 83.1517 81.1022 84.5189 80.793 86.3418C80.5 88.1647 80.3535 90.4352 80.3535 93.1533ZM127.424 103.603H123.127V111H115.754V103.603H100.52V98.3535L116.169 75.3066H123.127V97.7432H127.424V103.603ZM115.754 97.7432V91.6885C115.754 91.1188 115.762 90.4434 115.778 89.6621C115.811 88.8809 115.843 88.0996 115.876 87.3184C115.909 86.5371 115.941 85.8454 115.974 85.2432C116.022 84.6247 116.055 84.1934 116.071 83.9492H115.876C115.567 84.6165 115.241 85.2676 114.899 85.9023C114.558 86.5208 114.159 87.1719 113.703 87.8555L107.16 97.7432H115.754ZM141.267 83.7051H149.421L154.572 99.0615C154.735 99.5498 154.873 100.046 154.987 100.551C155.101 101.055 155.199 101.576 155.28 102.113C155.362 102.65 155.427 103.212 155.476 103.798H155.622C155.72 102.919 155.85 102.097 156.013 101.332C156.192 100.567 156.411 99.8102 156.672 99.0615L161.726 83.7051H169.709L158.161 114.491C157.461 116.379 156.55 117.95 155.427 119.203C154.304 120.473 153.01 121.425 151.545 122.06C150.096 122.694 148.501 123.012 146.76 123.012C145.913 123.012 145.181 122.963 144.562 122.865C143.944 122.784 143.415 122.694 142.976 122.597V116.688C143.317 116.77 143.749 116.843 144.27 116.908C144.79 116.973 145.336 117.006 145.905 117.006C146.947 117.006 147.842 116.786 148.591 116.347C149.34 115.907 149.966 115.313 150.471 114.564C150.975 113.832 151.374 113.026 151.667 112.147L152.106 110.805L141.267 83.7051ZM209.479 93.1533C209.479 96.0342 209.252 98.6058 208.796 100.868C208.356 103.131 207.64 105.051 206.647 106.63C205.671 108.209 204.385 109.413 202.79 110.243C201.195 111.073 199.258 111.488 196.979 111.488C194.115 111.488 191.763 110.764 189.924 109.315C188.085 107.851 186.726 105.751 185.847 103.017C184.968 100.266 184.528 96.9782 184.528 93.1533C184.528 89.2959 184.927 86 185.725 83.2656C186.538 80.515 187.857 78.4072 189.68 76.9424C191.503 75.4775 193.936 74.7451 196.979 74.7451C199.828 74.7451 202.172 75.4775 204.011 76.9424C205.866 78.391 207.242 80.4906 208.137 83.2412C209.032 85.9756 209.479 89.2796 209.479 93.1533ZM192.023 93.1533C192.023 95.8714 192.17 98.1419 192.463 99.9648C192.772 101.771 193.285 103.131 194.001 104.042C194.717 104.953 195.71 105.409 196.979 105.409C198.233 105.409 199.217 104.962 199.934 104.066C200.666 103.155 201.187 101.796 201.496 99.9893C201.805 98.1663 201.96 95.8877 201.96 93.1533C201.96 90.4352 201.805 88.1647 201.496 86.3418C201.187 84.5189 200.666 83.1517 199.934 82.2402C199.217 81.3125 198.233 80.8486 196.979 80.8486C195.71 80.8486 194.717 81.3125 194.001 82.2402C193.285 83.1517 192.772 84.5189 192.463 86.3418C192.17 88.1647 192.023 90.4352 192.023 93.1533ZM226.325 88.1973C228.506 88.1973 230.443 88.6123 232.136 89.4424C233.845 90.2725 235.188 91.4932 236.164 93.1045C237.141 94.7158 237.629 96.7015 237.629 99.0615C237.629 101.633 237.092 103.855 236.018 105.727C234.96 107.582 233.373 109.006 231.257 109.999C229.157 110.992 226.537 111.488 223.396 111.488C221.524 111.488 219.758 111.326 218.098 111C216.454 110.691 215.013 110.211 213.776 109.56V103.041C215.013 103.692 216.494 104.245 218.22 104.701C219.961 105.141 221.597 105.36 223.127 105.36C224.624 105.36 225.886 105.165 226.911 104.774C227.937 104.368 228.71 103.749 229.23 102.919C229.768 102.073 230.036 100.998 230.036 99.6963C230.036 97.9548 229.45 96.6201 228.278 95.6924C227.106 94.7646 225.308 94.3008 222.883 94.3008C221.955 94.3008 220.987 94.3903 219.978 94.5693C218.985 94.7484 218.155 94.9274 217.487 95.1064L214.484 93.4951L215.827 75.3066H235.188V81.7031H222.443L221.784 88.71C222.338 88.596 222.94 88.4821 223.591 88.3682C224.242 88.2542 225.153 88.1973 226.325 88.1973ZM101.701 146.473C101.701 148.399 101.456 150.153 100.966 151.737C100.476 153.309 99.7472 154.665 98.7788 155.804C97.8218 156.932 96.6312 157.804 95.207 158.419C93.7829 159.034 92.1309 159.342 90.251 159.342C88.3141 159.342 86.6222 159.034 85.1753 158.419C83.7397 157.804 82.5435 156.926 81.5864 155.787C80.6408 154.648 79.9287 153.286 79.4502 151.703C78.9831 150.119 78.7495 148.364 78.7495 146.439C78.7495 143.887 79.1711 141.648 80.0142 139.723C80.8573 137.797 82.1333 136.299 83.8423 135.228C85.5627 134.157 87.716 133.622 90.3022 133.622C92.7746 133.622 94.8538 134.151 96.54 135.211C98.2376 136.271 99.5194 137.763 100.385 139.688C101.263 141.603 101.701 143.864 101.701 146.473ZM81.8086 146.473C81.8086 148.592 82.1105 150.427 82.7144 151.976C83.3182 153.526 84.241 154.722 85.4829 155.565C86.7362 156.408 88.3255 156.83 90.251 156.83C92.1878 156.83 93.7715 156.408 95.002 155.565C96.2438 154.722 97.161 153.526 97.7534 151.976C98.3459 150.427 98.6421 148.592 98.6421 146.473C98.6421 143.249 97.9642 140.731 96.6084 138.919C95.264 137.097 93.1619 136.185 90.3022 136.185C88.3654 136.185 86.7703 136.601 85.5171 137.433C84.2638 138.264 83.3296 139.449 82.7144 140.987C82.1105 142.514 81.8086 144.343 81.8086 146.473ZM117.954 136.219C116.575 136.219 115.333 136.458 114.228 136.937C113.134 137.404 112.2 138.088 111.425 138.988C110.662 139.876 110.075 140.953 109.665 142.218C109.255 143.482 109.05 144.907 109.05 146.49C109.05 148.587 109.375 150.41 110.024 151.959C110.685 153.497 111.665 154.688 112.963 155.531C114.274 156.374 115.909 156.795 117.868 156.795C118.985 156.795 120.033 156.704 121.013 156.522C122.004 156.328 122.967 156.089 123.901 155.804V158.333C122.989 158.675 122.032 158.926 121.03 159.085C120.027 159.256 118.837 159.342 117.458 159.342C114.917 159.342 112.792 158.818 111.083 157.77C109.386 156.71 108.11 155.217 107.255 153.292C106.412 151.367 105.991 149.094 105.991 146.473C105.991 144.582 106.253 142.856 106.777 141.295C107.312 139.723 108.087 138.367 109.101 137.228C110.126 136.088 111.38 135.211 112.861 134.596C114.353 133.969 116.062 133.656 117.988 133.656C119.252 133.656 120.472 133.781 121.645 134.032C122.819 134.282 123.878 134.641 124.824 135.108L123.662 137.569C122.864 137.205 121.987 136.891 121.03 136.629C120.084 136.356 119.059 136.219 117.954 136.219ZM136.992 159H134.069V136.578H126.208V134.015H144.819V136.578H136.992V159ZM167.497 134.015V150.182C167.497 151.948 167.138 153.52 166.42 154.898C165.714 156.277 164.643 157.365 163.208 158.163C161.772 158.949 159.972 159.342 157.807 159.342C154.72 159.342 152.367 158.504 150.749 156.83C149.143 155.155 148.339 152.916 148.339 150.113V134.015H151.262V150.199C151.262 152.318 151.82 153.953 152.937 155.104C154.064 156.254 155.745 156.83 157.978 156.83C159.505 156.83 160.752 156.556 161.721 156.009C162.701 155.451 163.424 154.676 163.891 153.685C164.37 152.682 164.609 151.526 164.609 150.216V134.015H167.497ZM174.128 134.015H181.203C184.325 134.015 186.672 134.482 188.244 135.416C189.816 136.35 190.603 137.94 190.603 140.184C190.603 141.153 190.415 142.024 190.039 142.799C189.674 143.562 189.139 144.194 188.432 144.696C187.726 145.197 186.854 145.545 185.817 145.738V145.909C186.911 146.08 187.88 146.393 188.723 146.849C189.566 147.305 190.227 147.943 190.705 148.763C191.184 149.583 191.423 150.626 191.423 151.891C191.423 153.429 191.064 154.728 190.346 155.787C189.64 156.847 188.637 157.65 187.338 158.197C186.04 158.732 184.501 159 182.724 159H174.128V134.015ZM177.033 144.73H181.818C183.994 144.73 185.498 144.371 186.33 143.653C187.173 142.936 187.595 141.887 187.595 140.509C187.595 139.085 187.093 138.059 186.091 137.433C185.1 136.806 183.516 136.493 181.34 136.493H177.033V144.73ZM177.033 147.174V156.522H182.229C184.45 156.522 186.022 156.089 186.945 155.223C187.868 154.346 188.33 153.167 188.33 151.686C188.33 150.74 188.119 149.931 187.697 149.259C187.287 148.587 186.615 148.074 185.681 147.721C184.758 147.356 183.522 147.174 181.972 147.174H177.033ZM203.505 134.015C205.556 134.015 207.248 134.271 208.581 134.784C209.925 135.285 210.928 136.054 211.589 137.091C212.25 138.128 212.58 139.449 212.58 141.056C212.58 142.377 212.341 143.482 211.862 144.371C211.384 145.248 210.757 145.96 209.982 146.507C209.208 147.054 208.382 147.476 207.504 147.772L214.357 159H210.974L204.855 148.575H199.66V159H196.755V134.015H203.505ZM203.334 136.527H199.66V146.114H203.625C205.664 146.114 207.163 145.698 208.12 144.867C209.088 144.035 209.572 142.81 209.572 141.192C209.572 139.495 209.06 138.293 208.034 137.586C207.02 136.88 205.454 136.527 203.334 136.527ZM232.268 159H218.356V134.015H232.268V136.578H221.262V144.662H231.635V147.191H221.262V156.437H232.268V159Z" fill="white"/>
<g filter="url(#filter0_i_56_20)">
<path d="M121.179 218H92.6851V211.018L102.272 201.323C104.26 199.246 105.799 197.581 106.892 196.328C108.002 195.074 108.78 194.009 109.228 193.132C109.676 192.255 109.899 191.341 109.899 190.393C109.899 189.229 109.523 188.387 108.771 187.868C108.02 187.349 107.133 187.089 106.113 187.089C104.877 187.089 103.624 187.447 102.353 188.164C101.1 188.862 99.6764 189.9 98.083 191.279L92.2554 184.458C93.437 183.401 94.6903 182.399 96.0151 181.45C97.34 180.483 98.9066 179.695 100.715 179.086C102.523 178.478 104.725 178.173 107.321 178.173C109.989 178.173 112.299 178.639 114.25 179.57C116.219 180.501 117.741 181.781 118.815 183.41C119.89 185.021 120.427 186.857 120.427 188.916C120.427 191.189 120.006 193.221 119.165 195.012C118.341 196.784 117.097 198.566 115.432 200.356C113.767 202.128 111.69 204.143 109.201 206.398L106.328 208.977V209.245H121.179V218ZM153.566 198.422C153.566 201.573 153.316 204.393 152.814 206.882C152.313 209.353 151.507 211.456 150.397 213.193C149.305 214.93 147.855 216.254 146.047 217.167C144.239 218.081 142.019 218.537 139.387 218.537C136.11 218.537 133.425 217.74 131.33 216.147C129.235 214.536 127.687 212.235 126.684 209.245C125.699 206.237 125.207 202.63 125.207 198.422C125.207 194.179 125.655 190.554 126.55 187.546C127.463 184.52 128.958 182.202 131.035 180.59C133.111 178.979 135.896 178.173 139.387 178.173C142.663 178.173 145.34 178.979 147.417 180.59C149.511 182.184 151.06 184.493 152.062 187.519C153.065 190.527 153.566 194.161 153.566 198.422ZM135.761 198.422C135.761 200.983 135.851 203.131 136.03 204.868C136.227 206.604 136.585 207.911 137.104 208.789C137.641 209.648 138.402 210.078 139.387 210.078C140.371 210.078 141.123 209.648 141.643 208.789C142.162 207.911 142.52 206.613 142.717 204.895C142.914 203.158 143.012 201 143.012 198.422C143.012 195.826 142.914 193.66 142.717 191.923C142.52 190.187 142.162 188.88 141.643 188.002C141.123 187.107 140.371 186.66 139.387 186.66C138.402 186.66 137.641 187.107 137.104 188.002C136.585 188.88 136.227 190.187 136.03 191.923C135.851 193.66 135.761 195.826 135.761 198.422ZM185.632 218H157.138V211.018L166.726 201.323C168.713 199.246 170.253 197.581 171.345 196.328C172.455 195.074 173.234 194.009 173.681 193.132C174.129 192.255 174.353 191.341 174.353 190.393C174.353 189.229 173.977 188.387 173.225 187.868C172.473 187.349 171.586 187.089 170.566 187.089C169.331 187.089 168.077 187.447 166.806 188.164C165.553 188.862 164.13 189.9 162.536 191.279L156.708 184.458C157.89 183.401 159.143 182.399 160.468 181.45C161.793 180.483 163.36 179.695 165.168 179.086C166.976 178.478 169.178 178.173 171.774 178.173C174.442 178.173 176.752 178.639 178.703 179.57C180.673 180.501 182.194 181.781 183.269 183.41C184.343 185.021 184.88 186.857 184.88 188.916C184.88 191.189 184.459 193.221 183.618 195.012C182.794 196.784 181.55 198.566 179.885 200.356C178.22 202.128 176.143 204.143 173.654 206.398L170.781 208.977V209.245H185.632V218ZM205.559 192.272C207.743 192.272 209.73 192.765 211.521 193.75C213.311 194.734 214.743 196.167 215.817 198.046C216.892 199.926 217.429 202.218 217.429 204.921C217.429 207.84 216.838 210.319 215.656 212.36C214.493 214.383 212.729 215.923 210.366 216.979C208.02 218.018 205.057 218.537 201.477 218.537C199.203 218.537 197.126 218.358 195.246 218C193.384 217.66 191.719 217.132 190.251 216.416V207.714C191.63 208.341 193.286 208.914 195.219 209.433C197.171 209.934 198.961 210.185 200.59 210.185C201.897 210.185 203.007 209.997 203.92 209.621C204.833 209.245 205.523 208.69 205.988 207.956C206.472 207.222 206.713 206.318 206.713 205.244C206.713 203.758 206.176 202.594 205.102 201.752C204.028 200.893 202.399 200.463 200.214 200.463C199.23 200.463 198.263 200.562 197.314 200.759C196.365 200.956 195.533 201.171 194.816 201.403L190.922 199.47L192.399 178.737H214.797V187.573H201.423L200.939 192.756C201.512 192.648 202.094 192.541 202.685 192.434C203.294 192.326 204.252 192.272 205.559 192.272Z" fill="#E30613"/>
</g>
<defs>
<filter id="filter0_i_56_20" x="92.2554" y="178.173" width="125.173" height="44.3638" filterUnits="userSpaceOnUse" color-interpolation-filters="sRGB">
<feFlood flood-opacity="0" result="BackgroundImageFix"/>
<feBlend mode="normal" in="SourceGraphic" in2="BackgroundImageFix" result="shape"/>
<feColorMatrix in="SourceAlpha" type="matrix" values="0 0 0 0 0 0 0 0 0 0 0 0 0 0 0 0 0 0 127 0" result="hardAlpha"/>
<feOffset dy="4"/>
<feGaussianBlur stdDeviation="2"/>
<feComposite in2="hardAlpha" operator="arithmetic" k2="-1" k3="1"/>
<feColorMatrix type="matrix" values="0 0 0 0 0 0 0 0 0 0 0 0 0 0 0 0 0 0 0.25 0"/>
<feBlend mode="normal" in2="shape" result="effect1_innerShadow_56_20"/>
</filter>
</defs>
</svg>
