<svg width="1920" height="422" viewBox="0 0 1920 422" fill="none" xmlns="http://www.w3.org/2000/svg">
<path d="M0 0H1920V126H0V0Z" fill="#E30613"/>
<rect y="147.35" width="1920" height="126.3" fill="#F39200"/>
<rect y="295" width="1920" height="126" fill="#007199"/>
<g filter="url(#filter0_d_47_36)">
<path d="M473.05 61.0062H482.962V73.9603C481.652 74.3933 480.29 74.7408 478.877 75.0028C477.465 75.2535 475.864 75.3788 474.075 75.3788C471.591 75.3788 469.484 74.8889 467.752 73.9091C466.02 72.9292 464.704 71.4823 463.804 69.5682C462.904 67.6542 462.454 65.3015 462.454 62.5101C462.454 59.8897 462.955 57.6224 463.958 55.7084C464.972 53.7943 466.447 52.3132 468.384 51.265C470.332 50.2168 472.708 49.6927 475.511 49.6927C476.832 49.6927 478.137 49.8352 479.424 50.12C480.712 50.4048 481.879 50.7751 482.928 51.2308L481.167 55.4691C480.404 55.0817 479.532 54.757 478.553 54.495C477.573 54.233 476.547 54.1019 475.476 54.1019C473.938 54.1019 472.6 54.4551 471.46 55.1615C470.332 55.8679 469.455 56.8591 468.828 58.1351C468.213 59.3998 467.906 60.8923 467.906 62.6127C467.906 64.2419 468.128 65.6888 468.572 66.9535C469.016 68.2067 469.717 69.1923 470.674 69.91C471.631 70.6164 472.879 70.9696 474.417 70.9696C475.169 70.9696 475.801 70.9354 476.314 70.8671C476.838 70.7873 477.328 70.7076 477.784 70.6278V65.4154H473.05V61.0062ZM492.706 50.0516C494.974 50.0516 496.842 50.3251 498.312 50.8719C499.793 51.4188 500.892 52.2448 501.61 53.35C502.328 54.4551 502.687 55.8508 502.687 57.537C502.687 58.6763 502.47 59.6732 502.037 60.5277C501.605 61.3822 501.035 62.1057 500.328 62.6981C499.622 63.2906 498.859 63.7748 498.038 64.1508L505.387 75.037H499.508L493.544 65.4496H490.724V75.037H485.426V50.0516H492.706ZM492.33 54.3925H490.724V61.1429H492.433C494.188 61.1429 495.441 60.8524 496.193 60.2714C496.956 59.6789 497.338 58.813 497.338 57.6737C497.338 56.4888 496.928 55.6457 496.107 55.1444C495.298 54.6431 494.039 54.3925 492.33 54.3925ZM520.327 75.037L518.515 69.0897H509.407L507.595 75.037H501.887L510.705 49.9491H517.182L526.035 75.037H520.327ZM517.251 64.6464L515.439 58.8358C515.325 58.4484 515.172 57.9528 514.978 57.349C514.796 56.7338 514.608 56.1128 514.414 55.4862C514.232 54.8482 514.084 54.2956 513.97 53.8285C513.856 54.2956 513.696 54.8767 513.491 55.5717C513.297 56.2552 513.109 56.9047 512.927 57.5199C512.745 58.1351 512.614 58.5738 512.534 58.8358L510.74 64.6464H517.251ZM547.862 75.037H541.129L530.26 56.1356H530.106C530.151 56.9218 530.191 57.7136 530.225 58.5111C530.26 59.3086 530.294 60.1062 530.328 60.9037C530.362 61.6898 530.396 62.4816 530.431 63.2792V75.037H525.697V50.0516H532.379L543.231 68.765H543.35C543.328 67.9903 543.299 67.2212 543.265 66.4579C543.231 65.6945 543.197 64.9312 543.162 64.1678C543.14 63.4045 543.117 62.6412 543.094 61.8778V50.0516H547.862V75.037ZM571.398 62.3051C571.398 65.1192 570.857 67.4719 569.775 69.3632C568.704 71.243 567.149 72.6615 565.109 73.6185C563.07 74.5642 560.615 75.037 557.743 75.037H550.668V50.0516H558.513C561.133 50.0516 563.406 50.5188 565.331 51.453C567.257 52.3759 568.749 53.7487 569.809 55.5717C570.868 57.3832 571.398 59.6276 571.398 62.3051ZM565.895 62.4418C565.895 60.5961 565.622 59.0808 565.075 57.8959C564.54 56.6996 563.742 55.8166 562.682 55.2469C561.634 54.6773 560.335 54.3925 558.786 54.3925H555.966V70.662H558.239C560.825 70.662 562.745 69.9727 563.998 68.5941C565.263 67.2155 565.895 65.1648 565.895 62.4418ZM586.649 50.0516C589.874 50.0516 592.226 50.7466 593.707 52.1366C595.188 53.5152 595.929 55.4178 595.929 57.8446C595.929 58.9384 595.764 59.9865 595.433 60.9891C595.103 61.9803 594.562 62.8633 593.81 63.6381C593.069 64.4128 592.078 65.028 590.836 65.4838C589.594 65.9281 588.062 66.1503 586.239 66.1503H583.966V75.037H578.668V50.0516H586.649ZM586.376 54.3925H583.966V61.8094H585.709C586.701 61.8094 587.561 61.6784 588.29 61.4164C589.019 61.1543 589.583 60.7442 589.982 60.1859C590.381 59.6276 590.58 58.9099 590.58 58.0326C590.58 56.8021 590.238 55.8907 589.555 55.2982C588.871 54.6944 587.811 54.3925 586.376 54.3925ZM604.426 50.0516C606.693 50.0516 608.562 50.3251 610.032 50.8719C611.513 51.4188 612.612 52.2448 613.33 53.35C614.048 54.4551 614.407 55.8508 614.407 57.537C614.407 58.6763 614.19 59.6732 613.757 60.5277C613.324 61.3822 612.755 62.1057 612.048 62.6981C611.342 63.2906 610.578 63.7748 609.758 64.1508L617.107 75.037H611.228L605.264 65.4496H602.444V75.037H597.146V50.0516H604.426ZM604.05 54.3925H602.444V61.1429H604.153C605.907 61.1429 607.16 60.8524 607.912 60.2714C608.676 59.6789 609.057 58.813 609.057 57.6737C609.057 56.4888 608.647 55.6457 607.827 55.1444C607.018 54.6431 605.759 54.3925 604.05 54.3925ZM616.751 75.037V50.0516H622.049V75.037H616.751ZM645.038 75.037H638.989L633.178 65.5863L627.368 75.037H621.694L629.982 62.1512L622.223 50.0516H628.068L633.452 59.0409L638.732 50.0516H644.44L636.596 62.4418L645.038 75.037ZM661.058 53.1791C659.862 53.1791 658.791 53.3955 657.846 53.8285C656.911 54.2614 656.119 54.8881 655.47 55.7084C654.821 56.5173 654.325 57.5028 653.983 58.6649C653.641 59.8156 653.471 61.1145 653.471 62.5614C653.471 64.4983 653.744 66.1674 654.291 67.5687C654.838 68.9587 655.669 70.0297 656.786 70.7816C657.903 71.5222 659.315 71.8925 661.024 71.8925C662.084 71.8925 663.115 71.7899 664.118 71.5848C665.12 71.3798 666.157 71.1006 667.228 70.7474V74.2338C666.214 74.6325 665.188 74.9231 664.152 75.1053C663.115 75.2876 661.919 75.3788 660.563 75.3788C658.011 75.3788 655.892 74.849 654.205 73.7894C652.531 72.7299 651.277 71.2373 650.446 69.3119C649.625 67.3864 649.215 65.1306 649.215 62.5443C649.215 60.653 649.477 58.9213 650.001 57.349C650.525 55.7767 651.289 54.4209 652.291 53.2816C653.294 52.1309 654.53 51.2479 656 50.6327C657.481 50.0061 659.173 49.6927 661.076 49.6927C662.329 49.6927 663.559 49.8352 664.767 50.12C665.986 50.3934 667.114 50.7865 668.151 51.2992L666.715 54.683C665.849 54.2728 664.944 53.9196 663.998 53.6234C663.052 53.3272 662.072 53.1791 661.058 53.1791ZM691.277 62.5101C691.277 64.4356 691.032 66.1901 690.542 67.7738C690.063 69.3461 689.34 70.7019 688.371 71.8412C687.403 72.9691 686.19 73.8407 684.731 74.4559C683.273 75.0712 681.564 75.3788 679.604 75.3788C677.611 75.3788 675.879 75.0712 674.409 74.4559C672.951 73.8407 671.737 72.9634 670.769 71.8241C669.812 70.6848 669.094 69.3233 668.616 67.7396C668.137 66.156 667.898 64.4014 667.898 62.476C667.898 59.9011 668.319 57.6566 669.162 55.7426C670.017 53.8171 671.31 52.3246 673.042 51.265C674.785 50.1941 676.984 49.6586 679.639 49.6586C682.236 49.6586 684.395 50.1884 686.116 51.2479C687.836 52.3075 689.123 53.8 689.978 55.7255C690.844 57.6395 691.277 59.9011 691.277 62.5101ZM672.204 62.5101C672.204 64.4356 672.466 66.1047 672.991 67.5175C673.515 68.9188 674.318 70.0012 675.4 70.7645C676.494 71.5165 677.895 71.8925 679.604 71.8925C681.325 71.8925 682.726 71.5165 683.808 70.7645C684.891 70.0012 685.688 68.9188 686.201 67.5175C686.714 66.1047 686.97 64.4356 686.97 62.5101C686.97 59.5821 686.383 57.292 685.21 55.64C684.048 53.9766 682.191 53.1449 679.639 53.1449C677.93 53.1449 676.522 53.5209 675.417 54.2728C674.324 55.0248 673.515 56.1014 672.991 57.5028C672.466 58.8928 672.204 60.5619 672.204 62.5101ZM713.993 75.037H708.951L696.715 55.0931H696.561C696.606 55.7653 696.646 56.4774 696.681 57.2294C696.726 57.9813 696.76 58.7561 696.783 59.5536C696.817 60.3511 696.846 61.16 696.868 61.9803V75.037H693.143V50.0516H698.15L710.369 69.8588H710.489C710.466 69.2777 710.438 68.6112 710.404 67.8593C710.369 67.1073 710.335 66.3326 710.301 65.535C710.278 64.7261 710.261 63.9457 710.25 63.1937V50.0516H713.993V75.037ZM727.702 53.1791C726.506 53.1791 725.435 53.3955 724.489 53.8285C723.555 54.2614 722.763 54.8881 722.114 55.7084C721.464 56.5173 720.969 57.5028 720.627 58.6649C720.285 59.8156 720.114 61.1145 720.114 62.5614C720.114 64.4983 720.388 66.1674 720.934 67.5687C721.481 68.9587 722.313 70.0297 723.43 70.7816C724.546 71.5222 725.959 71.8925 727.668 71.8925C728.727 71.8925 729.758 71.7899 730.761 71.5848C731.764 71.3798 732.8 71.1006 733.871 70.7474V74.2338C732.857 74.6325 731.832 74.9231 730.795 75.1053C729.758 75.2876 728.562 75.3788 727.206 75.3788C724.654 75.3788 722.535 74.849 720.849 73.7894C719.174 72.7299 717.921 71.2373 717.089 69.3119C716.269 67.3864 715.859 65.1306 715.859 62.5443C715.859 60.653 716.121 58.9213 716.645 57.349C717.169 55.7767 717.932 54.4209 718.935 53.2816C719.938 52.1309 721.174 51.2479 722.643 50.6327C724.125 50.0061 725.816 49.6927 727.719 49.6927C728.972 49.6927 730.203 49.8352 731.41 50.12C732.63 50.3934 733.757 50.7865 734.794 51.2992L733.359 54.683C732.493 54.2728 731.587 53.9196 730.641 53.6234C729.696 53.3272 728.716 53.1791 727.702 53.1791ZM755.357 50.0516V66.2186C755.357 67.9618 754.987 69.5227 754.246 70.9012C753.517 72.2798 752.412 73.3736 750.931 74.1825C749.449 74.98 747.587 75.3788 745.342 75.3788C742.141 75.3788 739.702 74.5414 738.028 72.8666C736.364 71.1804 735.533 68.9416 735.533 66.1503V50.0516H739.634V65.7914C739.634 67.8763 740.124 69.4144 741.104 70.4056C742.084 71.3969 743.548 71.8925 745.496 71.8925C746.84 71.8925 747.934 71.6589 748.777 71.1918C749.632 70.7133 750.258 70.0183 750.657 69.1068C751.067 68.184 751.272 67.0731 751.272 65.7743V50.0516H755.357ZM765.272 50.0516C767.426 50.0516 769.203 50.3137 770.604 50.8378C772.017 51.3619 773.065 52.1594 773.749 53.2303C774.444 54.3013 774.791 55.6628 774.791 57.3148C774.791 58.5453 774.563 59.5935 774.108 60.4594C773.652 61.3252 773.054 62.043 772.313 62.6127C771.573 63.1823 770.781 63.6381 769.938 63.9799L777.03 75.037H772.399L766.366 65.0223H762.35V75.037H758.248V50.0516H765.272ZM764.999 53.4696H762.35V61.6385H765.187C767.09 61.6385 768.468 61.2854 769.323 60.579C770.188 59.8726 770.621 58.8301 770.621 57.4515C770.621 56.0046 770.16 54.9792 769.237 54.3754C768.326 53.7715 766.913 53.4696 764.999 53.4696ZM791.526 68.2352C791.526 69.7163 791.161 70.9924 790.432 72.0634C789.714 73.1343 788.677 73.9546 787.322 74.5243C785.977 75.094 784.371 75.3788 782.502 75.3788C781.591 75.3788 780.719 75.3275 779.888 75.225C779.056 75.1224 778.27 74.9743 777.529 74.7806C776.8 74.5756 776.133 74.3306 775.53 74.0458V70.1835C776.544 70.6278 777.677 71.0323 778.931 71.3969C780.184 71.75 781.46 71.9266 782.759 71.9266C783.818 71.9266 784.695 71.7899 785.39 71.5165C786.097 71.2316 786.621 70.8329 786.963 70.3202C787.305 69.7961 787.475 69.1866 787.475 68.4916C787.475 67.751 787.276 67.1244 786.877 66.6117C786.479 66.099 785.875 65.6319 785.066 65.2103C784.268 64.7774 783.266 64.316 782.058 63.826C781.238 63.4956 780.452 63.1197 779.7 62.6981C778.959 62.2766 778.298 61.781 777.717 61.2113C777.136 60.6416 776.675 59.9694 776.333 59.1947C776.002 58.4086 775.837 57.4857 775.837 56.4261C775.837 55.0134 776.173 53.8057 776.846 52.8031C777.529 51.8005 778.486 51.0315 779.717 50.496C780.959 49.9605 782.405 49.6927 784.057 49.6927C785.368 49.6927 786.598 49.8295 787.749 50.1029C788.911 50.3763 790.05 50.7637 791.167 51.265L789.868 54.5634C788.843 54.1418 787.846 53.8057 786.877 53.5551C785.92 53.3044 784.94 53.1791 783.938 53.1791C783.072 53.1791 782.337 53.3101 781.733 53.5721C781.129 53.8342 780.668 54.2045 780.349 54.683C780.041 55.1501 779.888 55.7084 779.888 56.3578C779.888 57.087 780.064 57.7022 780.417 58.2035C780.782 58.6934 781.34 59.1434 782.092 59.5536C782.855 59.9637 783.835 60.4195 785.032 60.9208C786.41 61.4904 787.578 62.0886 788.535 62.7152C789.503 63.3418 790.244 64.0938 790.757 64.9711C791.269 65.837 791.526 66.925 791.526 68.2352ZM815.028 62.5101C815.028 64.4356 814.783 66.1901 814.293 67.7738C813.814 69.3461 813.091 70.7019 812.122 71.8412C811.154 72.9691 809.941 73.8407 808.482 74.4559C807.024 75.0712 805.315 75.3788 803.355 75.3788C801.362 75.3788 799.63 75.0712 798.16 74.4559C796.702 73.8407 795.488 72.9634 794.52 71.8241C793.563 70.6848 792.845 69.3233 792.367 67.7396C791.888 66.156 791.649 64.4014 791.649 62.476C791.649 59.9011 792.07 57.6566 792.913 55.7426C793.768 53.8171 795.061 52.3246 796.793 51.265C798.536 50.1941 800.735 49.6586 803.389 49.6586C805.987 49.6586 808.146 50.1884 809.867 51.2479C811.587 52.3075 812.874 53.8 813.729 55.7255C814.595 57.6395 815.028 59.9011 815.028 62.5101ZM795.955 62.5101C795.955 64.4356 796.217 66.1047 796.742 67.5175C797.266 68.9188 798.069 70.0012 799.151 70.7645C800.245 71.5165 801.646 71.8925 803.355 71.8925C805.076 71.8925 806.477 71.5165 807.559 70.7645C808.642 70.0012 809.439 68.9188 809.952 67.5175C810.465 66.1047 810.721 64.4356 810.721 62.5101C810.721 59.5821 810.134 57.292 808.961 55.64C807.799 53.9766 805.942 53.1449 803.389 53.1449C801.681 53.1449 800.273 53.5209 799.168 54.2728C798.075 55.0248 797.266 56.1014 796.742 57.5028C796.217 58.8928 795.955 60.5619 795.955 62.5101ZM822.486 75.037V50.0516H826.587V75.037H822.486ZM850.534 75.037H845.492L833.256 55.0931H833.102C833.147 55.7653 833.187 56.4774 833.222 57.2294C833.267 57.9813 833.301 58.7561 833.324 59.5536C833.358 60.3511 833.387 61.16 833.41 61.9803V75.037H829.684V50.0516H834.691L846.91 69.8588H847.03C847.007 69.2777 846.979 68.6112 846.945 67.8593C846.91 67.1073 846.876 66.3326 846.842 65.535C846.819 64.7261 846.802 63.9457 846.791 63.1937V50.0516H850.534V75.037ZM862.261 75.037H858.142V53.538H850.827V50.0516H869.558V53.538H862.261V75.037ZM884.036 75.037H869.886V50.0516H884.036V53.5038H873.988V60.2885H883.404V63.7235H873.988V71.5677H884.036V75.037ZM892.961 50.0516C895.114 50.0516 896.891 50.3137 898.293 50.8378C899.706 51.3619 900.754 52.1594 901.437 53.2303C902.132 54.3013 902.48 55.6628 902.48 57.3148C902.48 58.5453 902.252 59.5935 901.796 60.4594C901.341 61.3252 900.742 62.043 900.002 62.6127C899.261 63.1823 898.469 63.6381 897.626 63.9799L904.719 75.037H900.087L894.055 65.0223H890.038V75.037H885.937V50.0516H892.961ZM892.687 53.4696H890.038V61.6385H892.875C894.778 61.6385 896.157 61.2854 897.011 60.579C897.877 59.8726 898.31 58.8301 898.31 57.4515C898.31 56.0046 897.848 54.9792 896.926 54.3754C896.014 53.7715 894.601 53.4696 892.687 53.4696ZM925.64 75.037H920.598L908.362 55.0931H908.208C908.254 55.7653 908.294 56.4774 908.328 57.2294C908.374 57.9813 908.408 58.7561 908.431 59.5536C908.465 60.3511 908.493 61.16 908.516 61.9803V75.037H904.79V50.0516H909.798L922.017 69.8588H922.137C922.114 69.2777 922.085 68.6112 922.051 67.8593C922.017 67.1073 921.983 66.3326 921.949 65.535C921.926 64.7261 921.909 63.9457 921.897 63.1937V50.0516H925.64V75.037ZM944.186 75.037L941.742 68.0985H932.189L929.745 75.037H925.421L934.718 49.9491H939.264L948.544 75.037H944.186ZM940.682 64.578L938.307 57.7421C938.216 57.4458 938.085 57.03 937.914 56.4945C937.743 55.9476 937.572 55.3951 937.401 54.8368C937.23 54.2671 937.088 53.7886 936.974 53.4012C936.86 53.8684 936.718 54.3925 936.547 54.9735C936.387 55.5432 936.228 56.0787 936.068 56.58C935.92 57.0813 935.806 57.4686 935.726 57.7421L933.334 64.578H940.682ZM958.989 53.1791C957.793 53.1791 956.722 53.3955 955.776 53.8285C954.842 54.2614 954.05 54.8881 953.401 55.7084C952.751 56.5173 952.256 57.5028 951.914 58.6649C951.572 59.8156 951.401 61.1145 951.401 62.5614C951.401 64.4983 951.675 66.1674 952.222 67.5687C952.768 68.9587 953.6 70.0297 954.717 70.7816C955.833 71.5222 957.246 71.8925 958.955 71.8925C960.014 71.8925 961.046 71.7899 962.048 71.5848C963.051 71.3798 964.088 71.1006 965.159 70.7474V74.2338C964.145 74.6325 963.119 74.9231 962.082 75.1053C961.046 75.2876 959.849 75.3788 958.493 75.3788C955.941 75.3788 953.822 74.849 952.136 73.7894C950.461 72.7299 949.208 71.2373 948.376 69.3119C947.556 67.3864 947.146 65.1306 947.146 62.5443C947.146 60.653 947.408 58.9213 947.932 57.349C948.456 55.7767 949.219 54.4209 950.222 53.2816C951.225 52.1309 952.461 51.2479 953.931 50.6327C955.412 50.0061 957.104 49.6927 959.006 49.6927C960.259 49.6927 961.49 49.8352 962.698 50.12C963.917 50.3934 965.045 50.7865 966.081 51.2992L964.646 54.683C963.78 54.2728 962.874 53.9196 961.929 53.6234C960.983 53.3272 960.003 53.1791 958.989 53.1791ZM967.025 75.037V50.0516H971.126V75.037H967.025ZM996.406 62.5101C996.406 64.4356 996.161 66.1901 995.671 67.7738C995.192 69.3461 994.469 70.7019 993.5 71.8412C992.532 72.9691 991.319 73.8407 989.86 74.4559C988.402 75.0712 986.693 75.3788 984.733 75.3788C982.739 75.3788 981.008 75.0712 979.538 74.4559C978.08 73.8407 976.866 72.9634 975.898 71.8241C974.941 70.6848 974.223 69.3233 973.744 67.7396C973.266 66.156 973.027 64.4014 973.027 62.476C973.027 59.9011 973.448 57.6566 974.291 55.7426C975.146 53.8171 976.439 52.3246 978.171 51.265C979.914 50.1941 982.113 49.6586 984.767 49.6586C987.365 49.6586 989.524 50.1884 991.244 51.2479C992.965 52.3075 994.252 53.8 995.107 55.7255C995.973 57.6395 996.406 59.9011 996.406 62.5101ZM977.333 62.5101C977.333 64.4356 977.595 66.1047 978.119 67.5175C978.644 68.9188 979.447 70.0012 980.529 70.7645C981.623 71.5165 983.024 71.8925 984.733 71.8925C986.454 71.8925 987.855 71.5165 988.937 70.7645C990.02 70.0012 990.817 68.9188 991.33 67.5175C991.843 66.1047 992.099 64.4356 992.099 62.5101C992.099 59.5821 991.512 57.292 990.339 55.64C989.177 53.9766 987.32 53.1449 984.767 53.1449C983.058 53.1449 981.651 53.5209 980.546 54.2728C979.452 55.0248 978.644 56.1014 978.119 57.5028C977.595 58.8928 977.333 60.5619 977.333 62.5101ZM1019.12 75.037H1014.08L1001.84 55.0931H1001.69C1001.74 55.7653 1001.78 56.4774 1001.81 57.2294C1001.85 57.9813 1001.89 58.7561 1001.91 59.5536C1001.95 60.3511 1001.97 61.16 1002 61.9803V75.037H998.272V50.0516H1003.28L1015.5 69.8588H1015.62C1015.6 69.2777 1015.57 68.6112 1015.53 67.8593C1015.5 67.1073 1015.46 66.3326 1015.43 65.535C1015.41 64.7261 1015.39 63.9457 1015.38 63.1937V50.0516H1019.12V75.037ZM1037.67 75.037L1035.22 68.0985H1025.67L1023.23 75.037H1018.9L1028.2 49.9491H1032.75L1042.03 75.037H1037.67ZM1034.16 64.578L1031.79 57.7421C1031.7 57.4458 1031.57 57.03 1031.4 56.4945C1031.22 55.9476 1031.05 55.3951 1030.88 54.8368C1030.71 54.2671 1030.57 53.7886 1030.46 53.4012C1030.34 53.8684 1030.2 54.3925 1030.03 54.9735C1029.87 55.5432 1029.71 56.0787 1029.55 56.58C1029.4 57.0813 1029.29 57.4686 1029.21 57.7421L1026.82 64.578H1034.16ZM1041.82 75.037V50.0516H1045.93V71.5507H1056.54V75.037H1041.82ZM1062.95 75.037V50.0516H1067.06V71.5507H1077.67V75.037H1062.95ZM1093.97 75.037L1091.53 68.0985H1081.98L1079.53 75.037H1075.21L1084.51 49.9491H1089.05L1098.33 75.037H1093.97ZM1090.47 64.578L1088.1 57.7421C1088 57.4458 1087.87 57.03 1087.7 56.4945C1087.53 55.9476 1087.36 55.3951 1087.19 54.8368C1087.02 54.2671 1086.88 53.7886 1086.76 53.4012C1086.65 53.8684 1086.51 54.3925 1086.34 54.9735C1086.18 55.5432 1086.02 56.0787 1085.86 56.58C1085.71 57.0813 1085.6 57.4686 1085.52 57.7421L1083.12 64.578H1090.47ZM1106.8 75.037H1102.68V53.538H1095.36V50.0516H1114.09V53.538H1106.8V75.037ZM1114.42 75.037V50.0516H1118.52V75.037H1114.42ZM1142.47 75.037H1137.43L1125.19 55.0931H1125.04C1125.08 55.7653 1125.12 56.4774 1125.16 57.2294C1125.2 57.9813 1125.24 58.7561 1125.26 59.5536C1125.29 60.3511 1125.32 61.16 1125.35 61.9803V75.037H1121.62V50.0516H1126.63L1138.85 69.8588H1138.97C1138.94 69.2777 1138.91 68.6112 1138.88 67.8593C1138.85 67.1073 1138.81 66.3326 1138.78 65.535C1138.75 64.7261 1138.74 63.9457 1138.73 63.1937V50.0516H1142.47V75.037ZM1167.71 62.5101C1167.71 64.4356 1167.47 66.1901 1166.98 67.7738C1166.5 69.3461 1165.78 70.7019 1164.81 71.8412C1163.84 72.9691 1162.63 73.8407 1161.17 74.4559C1159.71 75.0712 1158 75.3788 1156.04 75.3788C1154.05 75.3788 1152.32 75.0712 1150.85 74.4559C1149.39 73.8407 1148.17 72.9634 1147.21 71.8241C1146.25 70.6848 1145.53 69.3233 1145.05 67.7396C1144.57 66.156 1144.34 64.4014 1144.34 62.476C1144.34 59.9011 1144.76 57.6566 1145.6 55.7426C1146.45 53.8171 1147.75 52.3246 1149.48 51.265C1151.22 50.1941 1153.42 49.6586 1156.08 49.6586C1158.67 49.6586 1160.83 50.1884 1162.55 51.2479C1164.27 52.3075 1165.56 53.8 1166.42 55.7255C1167.28 57.6395 1167.71 59.9011 1167.71 62.5101ZM1148.64 62.5101C1148.64 64.4356 1148.9 66.1047 1149.43 67.5175C1149.95 68.9188 1150.76 70.0012 1151.84 70.7645C1152.93 71.5165 1154.33 71.8925 1156.04 71.8925C1157.76 71.8925 1159.16 71.5165 1160.25 70.7645C1161.33 70.0012 1162.13 68.9188 1162.64 67.5175C1163.15 66.1047 1163.41 64.4356 1163.41 62.5101C1163.41 59.5821 1162.82 57.292 1161.65 55.64C1160.49 53.9766 1158.63 53.1449 1156.08 53.1449C1154.37 53.1449 1152.96 53.5209 1151.85 54.2728C1150.76 55.0248 1149.95 56.1014 1149.43 57.5028C1148.9 58.8928 1148.64 60.5619 1148.64 62.5101ZM1185.06 75.037L1182.62 68.0985H1173.07L1170.62 75.037H1166.3L1175.6 49.9491H1180.14L1189.42 75.037H1185.06ZM1181.56 64.578L1179.18 57.7421C1179.09 57.4458 1178.96 57.03 1178.79 56.4945C1178.62 55.9476 1178.45 55.3951 1178.28 54.8368C1178.11 54.2671 1177.97 53.7886 1177.85 53.4012C1177.74 53.8684 1177.6 54.3925 1177.42 54.9735C1177.27 55.5432 1177.11 56.0787 1176.95 56.58C1176.8 57.0813 1176.68 57.4686 1176.6 57.7421L1174.21 64.578H1181.56ZM1200 75.037L1192.81 54.1703H1192.66C1192.69 54.6374 1192.73 55.2754 1192.77 56.0844C1192.82 56.8933 1192.86 57.7592 1192.89 58.682C1192.93 59.6049 1192.95 60.4878 1192.95 61.3309V75.037H1189.22V50.0516H1194.98L1201.9 69.9955H1202L1209.16 50.0516H1214.91V75.037H1210.99V61.1259C1210.99 60.3625 1211 59.5365 1211.03 58.6478C1211.06 57.7592 1211.1 56.9161 1211.13 56.1185C1211.17 55.321 1211.21 54.683 1211.23 54.2045H1211.1L1203.63 75.037H1200ZM1232.14 75.037H1217.99V50.0516H1232.14V53.5038H1222.09V60.2885H1231.5V63.7235H1222.09V71.5677H1232.14V75.037ZM1241.06 50.0516C1243.21 50.0516 1244.99 50.3137 1246.39 50.8378C1247.81 51.3619 1248.85 52.1594 1249.54 53.2303C1250.23 54.3013 1250.58 55.6628 1250.58 57.3148C1250.58 58.5453 1250.35 59.5935 1249.9 60.4594C1249.44 61.3252 1248.84 62.043 1248.1 62.6127C1247.36 63.1823 1246.57 63.6381 1245.73 63.9799L1252.82 75.037H1248.19L1242.15 65.0223H1238.14V75.037H1234.04V50.0516H1241.06ZM1240.79 53.4696H1238.14V61.6385H1240.97C1242.88 61.6385 1244.26 61.2854 1245.11 60.579C1245.98 59.8726 1246.41 58.8301 1246.41 57.4515C1246.41 56.0046 1245.95 54.9792 1245.03 54.3754C1244.11 53.7715 1242.7 53.4696 1240.79 53.4696ZM1252.89 75.037V50.0516H1256.99V75.037H1252.89ZM1270.74 53.1791C1269.54 53.1791 1268.47 53.3955 1267.52 53.8285C1266.59 54.2614 1265.8 54.8881 1265.15 55.7084C1264.5 56.5173 1264 57.5028 1263.66 58.6649C1263.32 59.8156 1263.15 61.1145 1263.15 62.5614C1263.15 64.4983 1263.42 66.1674 1263.97 67.5687C1264.51 68.9587 1265.35 70.0297 1266.46 70.7816C1267.58 71.5222 1268.99 71.8925 1270.7 71.8925C1271.76 71.8925 1272.79 71.7899 1273.79 71.5848C1274.8 71.3798 1275.83 71.1006 1276.9 70.7474V74.2338C1275.89 74.6325 1274.87 74.9231 1273.83 75.1053C1272.79 75.2876 1271.6 75.3788 1270.24 75.3788C1267.69 75.3788 1265.57 74.849 1263.88 73.7894C1262.21 72.7299 1260.95 71.2373 1260.12 69.3119C1259.3 67.3864 1258.89 65.1306 1258.89 62.5443C1258.89 60.653 1259.15 58.9213 1259.68 57.349C1260.2 55.7767 1260.97 54.4209 1261.97 53.2816C1262.97 52.1309 1264.21 51.2479 1265.68 50.6327C1267.16 50.0061 1268.85 49.6927 1270.75 49.6927C1272.01 49.6927 1273.24 49.8352 1274.44 50.12C1275.66 50.3934 1276.79 50.7865 1277.83 51.2992L1276.39 54.683C1275.53 54.2728 1274.62 53.9196 1273.67 53.6234C1272.73 53.3272 1271.75 53.1791 1270.74 53.1791ZM1294.25 75.037L1291.81 68.0985H1282.26L1279.81 75.037H1275.49L1284.79 49.9491H1289.33L1298.61 75.037H1294.25ZM1290.75 64.578L1288.38 57.7421C1288.28 57.4458 1288.15 57.03 1287.98 56.4945C1287.81 55.9476 1287.64 55.3951 1287.47 54.8368C1287.3 54.2671 1287.16 53.7886 1287.04 53.4012C1286.93 53.8684 1286.79 54.3925 1286.62 54.9735C1286.46 55.5432 1286.3 56.0787 1286.14 56.58C1285.99 57.0813 1285.87 57.4686 1285.79 57.7421L1283.4 64.578H1290.75ZM1324.29 62.3051C1324.29 65.1192 1323.76 67.4719 1322.72 69.3632C1321.67 71.243 1320.15 72.6615 1318.15 73.6185C1316.16 74.5642 1313.75 75.037 1310.94 75.037H1304V50.0516H1311.69C1314.28 50.0516 1316.51 50.5188 1318.39 51.453C1320.27 52.3759 1321.72 53.7487 1322.75 55.5717C1323.78 57.3832 1324.29 59.6276 1324.29 62.3051ZM1320.02 62.4247C1320.02 60.3739 1319.69 58.6877 1319.04 57.3661C1318.4 56.0445 1317.46 55.0647 1316.2 54.4266C1314.96 53.7772 1313.43 53.4525 1311.61 53.4525H1308.1V71.6019H1311.01C1314.03 71.6019 1316.28 70.8329 1317.78 69.2948C1319.27 67.7567 1320.02 65.4667 1320.02 62.4247ZM1341.65 75.037L1339.21 68.0985H1329.66L1327.21 75.037H1322.89L1332.19 49.9491H1336.73L1346.01 75.037H1341.65ZM1338.15 64.578L1335.78 57.7421C1335.68 57.4458 1335.55 57.03 1335.38 56.4945C1335.21 55.9476 1335.04 55.3951 1334.87 54.8368C1334.7 54.2671 1334.56 53.7886 1334.44 53.4012C1334.33 53.8684 1334.19 54.3925 1334.02 54.9735C1333.86 55.5432 1333.7 56.0787 1333.54 56.58C1333.39 57.0813 1333.27 57.4686 1333.2 57.7421L1330.8 64.578H1338.15ZM1366.66 75.037H1361.62L1349.38 55.0931H1349.23C1349.27 55.7653 1349.31 56.4774 1349.35 57.2294C1349.39 57.9813 1349.43 58.7561 1349.45 59.5536C1349.49 60.3511 1349.51 61.16 1349.54 61.9803V75.037H1345.81V50.0516H1350.82L1363.04 69.8588H1363.16C1363.13 69.2777 1363.11 68.6112 1363.07 67.8593C1363.04 67.1073 1363 66.3326 1362.97 65.535C1362.95 64.7261 1362.93 63.9457 1362.92 63.1937V50.0516H1366.66V75.037ZM1385.5 75.037H1367.54V72.2172L1380.25 53.538H1367.93V50.0516H1385.16V52.8544L1372.44 71.5507H1385.5V75.037ZM1401.87 75.037L1399.43 68.0985H1389.88L1387.43 75.037H1383.11L1392.4 49.9491H1396.95L1406.23 75.037H1401.87ZM1398.37 64.578L1395.99 57.7421C1395.9 57.4458 1395.77 57.03 1395.6 56.4945C1395.43 55.9476 1395.26 55.3951 1395.09 54.8368C1394.92 54.2671 1394.77 53.7886 1394.66 53.4012C1394.55 53.8684 1394.4 54.3925 1394.23 54.9735C1394.07 55.5432 1393.91 56.0787 1393.75 56.58C1393.61 57.0813 1393.49 57.4686 1393.41 57.7421L1391.02 64.578H1398.37Z" fill="white"/>
</g>
<g filter="url(#filter1_d_47_36)">
<path d="M473.757 217.065C472.743 217.065 471.843 217.264 471.057 217.663C470.282 218.05 469.627 218.614 469.092 219.355C468.568 220.096 468.169 220.99 467.896 222.038C467.622 223.086 467.485 224.265 467.485 225.576C467.485 227.342 467.702 228.851 468.135 230.104C468.579 231.346 469.263 232.298 470.186 232.958C471.108 233.608 472.299 233.933 473.757 233.933C474.771 233.933 475.785 233.819 476.799 233.591C477.825 233.363 478.936 233.038 480.132 232.617V237.06C479.027 237.516 477.939 237.84 476.868 238.034C475.797 238.239 474.595 238.342 473.262 238.342C470.687 238.342 468.568 237.812 466.904 236.752C465.252 235.681 464.028 234.189 463.23 232.275C462.432 230.349 462.034 228.105 462.034 225.542C462.034 223.65 462.29 221.918 462.803 220.346C463.315 218.774 464.067 217.412 465.059 216.262C466.05 215.111 467.275 214.222 468.733 213.596C470.191 212.969 471.866 212.656 473.757 212.656C474.999 212.656 476.241 212.815 477.483 213.134C478.736 213.442 479.932 213.869 481.072 214.416L479.363 218.723C478.429 218.278 477.489 217.891 476.543 217.561C475.597 217.23 474.669 217.065 473.757 217.065ZM504.642 225.473C504.642 227.399 504.403 229.153 503.924 230.737C503.446 232.309 502.717 233.665 501.737 234.804C500.768 235.944 499.538 236.821 498.045 237.436C496.553 238.04 494.787 238.342 492.748 238.342C490.708 238.342 488.942 238.04 487.45 237.436C485.957 236.821 484.721 235.944 483.741 234.804C482.773 233.665 482.049 232.303 481.571 230.72C481.092 229.136 480.853 227.376 480.853 225.439C480.853 222.853 481.275 220.603 482.118 218.688C482.972 216.763 484.282 215.271 486.048 214.211C487.814 213.151 490.059 212.622 492.782 212.622C495.493 212.622 497.721 213.151 499.464 214.211C501.218 215.271 502.517 216.763 503.36 218.688C504.215 220.614 504.642 222.875 504.642 225.473ZM486.407 225.473C486.407 227.216 486.624 228.72 487.057 229.985C487.501 231.238 488.19 232.207 489.125 232.89C490.059 233.562 491.266 233.898 492.748 233.898C494.251 233.898 495.471 233.562 496.405 232.89C497.339 232.207 498.017 231.238 498.438 229.985C498.871 228.72 499.088 227.216 499.088 225.473C499.088 222.853 498.598 220.791 497.618 219.287C496.638 217.783 495.026 217.031 492.782 217.031C491.289 217.031 490.07 217.373 489.125 218.056C488.19 218.728 487.501 219.697 487.057 220.961C486.624 222.215 486.407 223.719 486.407 225.473ZM528.486 238H521.752L510.883 219.099H510.729C510.775 219.885 510.815 220.677 510.849 221.474C510.883 222.272 510.917 223.069 510.952 223.867C510.986 224.653 511.02 225.445 511.054 226.242V238H506.32V213.015H513.002L523.854 231.728H523.974C523.951 230.953 523.923 230.184 523.889 229.421C523.854 228.658 523.82 227.894 523.786 227.131C523.763 226.368 523.741 225.604 523.718 224.841V213.015H528.486V238ZM541.905 217.065C540.891 217.065 539.991 217.264 539.205 217.663C538.43 218.05 537.775 218.614 537.239 219.355C536.715 220.096 536.316 220.99 536.043 222.038C535.77 223.086 535.633 224.265 535.633 225.576C535.633 227.342 535.849 228.851 536.282 230.104C536.727 231.346 537.41 232.298 538.333 232.958C539.256 233.608 540.446 233.933 541.905 233.933C542.919 233.933 543.933 233.819 544.947 233.591C545.972 233.363 547.083 233.038 548.279 232.617V237.06C547.174 237.516 546.086 237.84 545.015 238.034C543.944 238.239 542.742 238.342 541.409 238.342C538.834 238.342 536.715 237.812 535.052 236.752C533.4 235.681 532.175 234.189 531.377 232.275C530.58 230.349 530.181 228.105 530.181 225.542C530.181 223.65 530.438 221.918 530.95 220.346C531.463 218.774 532.215 217.412 533.206 216.262C534.197 215.111 535.422 214.222 536.88 213.596C538.339 212.969 540.014 212.656 541.905 212.656C543.147 212.656 544.389 212.815 545.63 213.134C546.884 213.442 548.08 213.869 549.219 214.416L547.51 218.723C546.576 218.278 545.636 217.891 544.69 217.561C543.745 217.23 542.816 217.065 541.905 217.065ZM570.448 213.015V229.182C570.448 230.902 570.067 232.457 569.303 233.847C568.551 235.226 567.406 236.319 565.868 237.128C564.341 237.937 562.416 238.342 560.092 238.342C556.788 238.342 554.27 237.499 552.538 235.812C550.806 234.126 549.94 231.893 549.94 229.113V213.015H555.221V228.31C555.221 230.372 555.643 231.819 556.486 232.651C557.329 233.483 558.576 233.898 560.229 233.898C561.391 233.898 562.331 233.699 563.048 233.3C563.778 232.902 564.313 232.286 564.655 231.455C564.997 230.623 565.167 229.563 565.167 228.276V213.015H570.448ZM580.347 213.015C582.614 213.015 584.482 213.288 585.952 213.835C587.433 214.382 588.533 215.208 589.25 216.313C589.968 217.418 590.327 218.814 590.327 220.5C590.327 221.639 590.111 222.636 589.678 223.491C589.245 224.345 588.675 225.069 587.969 225.661C587.262 226.254 586.499 226.738 585.679 227.114L593.027 238H587.148L581.184 228.413H578.364V238H573.066V213.015H580.347ZM579.971 217.355H578.364V224.106H580.073C581.828 224.106 583.081 223.815 583.833 223.234C584.596 222.642 584.978 221.776 584.978 220.637C584.978 219.452 584.568 218.609 583.748 218.107C582.939 217.606 581.68 217.355 579.971 217.355ZM607.42 231.062C607.42 232.543 607.062 233.83 606.344 234.924C605.626 236.018 604.578 236.861 603.199 237.453C601.832 238.046 600.169 238.342 598.209 238.342C597.343 238.342 596.494 238.285 595.663 238.171C594.842 238.057 594.05 237.892 593.287 237.675C592.535 237.447 591.817 237.168 591.134 236.838V231.916C592.319 232.44 593.549 232.913 594.825 233.334C596.101 233.756 597.366 233.967 598.619 233.967C599.485 233.967 600.18 233.853 600.704 233.625C601.24 233.397 601.627 233.084 601.866 232.685C602.105 232.286 602.225 231.831 602.225 231.318C602.225 230.691 602.014 230.156 601.593 229.711C601.171 229.267 600.59 228.851 599.85 228.464C599.12 228.076 598.294 227.661 597.372 227.216C596.791 226.943 596.158 226.612 595.475 226.225C594.791 225.826 594.142 225.342 593.526 224.772C592.911 224.203 592.404 223.514 592.005 222.705C591.618 221.884 591.424 220.904 591.424 219.765C591.424 218.273 591.766 216.997 592.45 215.937C593.133 214.877 594.107 214.069 595.372 213.51C596.648 212.941 598.152 212.656 599.884 212.656C601.183 212.656 602.419 212.81 603.592 213.117C604.777 213.413 606.013 213.846 607.301 214.416L605.592 218.535C604.441 218.068 603.41 217.709 602.499 217.458C601.587 217.196 600.659 217.065 599.713 217.065C599.052 217.065 598.488 217.173 598.021 217.39C597.554 217.595 597.201 217.891 596.961 218.278C596.722 218.654 596.603 219.093 596.603 219.594C596.603 220.187 596.773 220.688 597.115 221.098C597.468 221.497 597.993 221.884 598.688 222.26C599.394 222.636 600.271 223.075 601.319 223.576C602.595 224.18 603.683 224.812 604.583 225.473C605.495 226.123 606.196 226.892 606.686 227.78C607.175 228.658 607.42 229.751 607.42 231.062ZM631.127 225.473C631.127 227.399 630.888 229.153 630.41 230.737C629.931 232.309 629.202 233.665 628.222 234.804C627.254 235.944 626.023 236.821 624.531 237.436C623.038 238.04 621.272 238.342 619.233 238.342C617.194 238.342 615.428 238.04 613.935 237.436C612.443 236.821 611.206 235.944 610.227 234.804C609.258 233.665 608.535 232.303 608.056 230.72C607.578 229.136 607.338 227.376 607.338 225.439C607.338 222.853 607.76 220.603 608.603 218.688C609.458 216.763 610.768 215.271 612.534 214.211C614.3 213.151 616.544 212.622 619.267 212.622C621.979 212.622 624.206 213.151 625.949 214.211C627.704 215.271 629.003 216.763 629.846 218.688C630.7 220.614 631.127 222.875 631.127 225.473ZM612.893 225.473C612.893 227.216 613.109 228.72 613.542 229.985C613.986 231.238 614.676 232.207 615.61 232.89C616.544 233.562 617.752 233.898 619.233 233.898C620.737 233.898 621.956 233.562 622.89 232.89C623.824 232.207 624.502 231.238 624.924 229.985C625.357 228.72 625.573 227.216 625.573 225.473C625.573 222.853 625.083 220.791 624.104 219.287C623.124 217.783 621.512 217.031 619.267 217.031C617.775 217.031 616.556 217.373 615.61 218.056C614.676 218.728 613.986 219.697 613.542 220.961C613.109 222.215 612.893 223.719 612.893 225.473ZM638.397 238V213.015H643.695V238H638.397ZM668.65 238H661.917L651.047 219.099H650.894C650.939 219.885 650.979 220.677 651.013 221.474C651.047 222.272 651.082 223.069 651.116 223.867C651.15 224.653 651.184 225.445 651.218 226.242V238H646.484V213.015H653.167L664.019 231.728H664.138C664.115 230.953 664.087 230.184 664.053 229.421C664.019 228.658 663.984 227.894 663.95 227.131C663.927 226.368 663.905 225.604 663.882 224.841V213.015H668.65V238ZM681.095 238H675.797V217.424H669.012V213.015H687.879V217.424H681.095V238ZM702.614 238H688.225V213.015H702.614V217.355H693.522V222.841H701.982V227.182H693.522V233.625H702.614V238ZM711.624 213.015C713.891 213.015 715.76 213.288 717.229 213.835C718.711 214.382 719.81 215.208 720.528 216.313C721.246 217.418 721.604 218.814 721.604 220.5C721.604 221.639 721.388 222.636 720.955 223.491C720.522 224.345 719.952 225.069 719.246 225.661C718.54 226.254 717.776 226.738 716.956 227.114L724.305 238H718.426L712.461 228.413H709.642V238H704.344V213.015H711.624ZM711.248 217.355H709.642V224.106H711.351C713.105 224.106 714.358 223.815 715.11 223.234C715.874 222.642 716.255 221.776 716.255 220.637C716.255 219.452 715.845 218.609 715.025 218.107C714.216 217.606 712.957 217.355 711.248 217.355ZM746.115 238H739.381L728.512 219.099H728.358C728.404 219.885 728.444 220.677 728.478 221.474C728.512 222.272 728.546 223.069 728.581 223.867C728.615 224.653 728.649 225.445 728.683 226.242V238H723.949V213.015H730.631L741.483 231.728H741.603C741.58 230.953 741.552 230.184 741.518 229.421C741.483 228.658 741.449 227.894 741.415 227.131C741.392 226.368 741.369 225.604 741.347 224.841V213.015H746.115V238ZM764.216 238L762.405 232.053H753.296L751.484 238H745.776L754.595 212.912H761.072L769.924 238H764.216ZM761.14 227.609L759.329 221.799C759.215 221.411 759.061 220.916 758.867 220.312C758.685 219.697 758.497 219.076 758.303 218.449C758.121 217.811 757.973 217.259 757.859 216.792C757.745 217.259 757.585 217.84 757.38 218.535C757.187 219.218 756.999 219.868 756.816 220.483C756.634 221.098 756.503 221.537 756.423 221.799L754.629 227.609H761.14ZM780.199 217.065C779.185 217.065 778.285 217.264 777.499 217.663C776.724 218.05 776.069 218.614 775.533 219.355C775.009 220.096 774.61 220.99 774.337 222.038C774.063 223.086 773.927 224.265 773.927 225.576C773.927 227.342 774.143 228.851 774.576 230.104C775.021 231.346 775.704 232.298 776.627 232.958C777.55 233.608 778.74 233.933 780.199 233.933C781.213 233.933 782.227 233.819 783.241 233.591C784.266 233.363 785.377 233.038 786.573 232.617V237.06C785.468 237.516 784.38 237.84 783.309 238.034C782.238 238.239 781.036 238.342 779.703 238.342C777.128 238.342 775.009 237.812 773.346 236.752C771.694 235.681 770.469 234.189 769.671 232.275C768.874 230.349 768.475 228.105 768.475 225.542C768.475 223.65 768.731 221.918 769.244 220.346C769.757 218.774 770.509 217.412 771.5 216.262C772.491 215.111 773.716 214.222 775.174 213.596C776.633 212.969 778.307 212.656 780.199 212.656C781.441 212.656 782.682 212.815 783.924 213.134C785.178 213.442 786.374 213.869 787.513 214.416L785.804 218.723C784.87 218.278 783.93 217.891 782.984 217.561C782.039 217.23 781.11 217.065 780.199 217.065ZM788.405 238V213.015H793.703V238H788.405ZM819.17 225.473C819.17 227.399 818.931 229.153 818.453 230.737C817.974 232.309 817.245 233.665 816.265 234.804C815.297 235.944 814.066 236.821 812.574 237.436C811.081 238.04 809.315 238.342 807.276 238.342C805.236 238.342 803.471 238.04 801.978 237.436C800.486 236.821 799.249 235.944 798.27 234.804C797.301 233.665 796.578 232.303 796.099 230.72C795.621 229.136 795.381 227.376 795.381 225.439C795.381 222.853 795.803 220.603 796.646 218.688C797.5 216.763 798.811 215.271 800.577 214.211C802.343 213.151 804.587 212.622 807.31 212.622C810.022 212.622 812.249 213.151 813.992 214.211C815.747 215.271 817.046 216.763 817.889 218.688C818.743 220.614 819.17 222.875 819.17 225.473ZM800.936 225.473C800.936 227.216 801.152 228.72 801.585 229.985C802.029 231.238 802.719 232.207 803.653 232.89C804.587 233.562 805.795 233.898 807.276 233.898C808.78 233.898 809.999 233.562 810.933 232.89C811.867 232.207 812.545 231.238 812.967 229.985C813.4 228.72 813.616 227.216 813.616 225.473C813.616 222.853 813.126 220.791 812.146 219.287C811.167 217.783 809.555 217.031 807.31 217.031C805.818 217.031 804.598 217.373 803.653 218.056C802.719 218.728 802.029 219.697 801.585 220.961C801.152 222.215 800.936 223.719 800.936 225.473ZM843.014 238H836.281L825.412 219.099H825.258C825.303 219.885 825.343 220.677 825.377 221.474C825.412 222.272 825.446 223.069 825.48 223.867C825.514 224.653 825.548 225.445 825.583 226.242V238H820.849V213.015H827.531L838.383 231.728H838.502C838.48 230.953 838.451 230.184 838.417 229.421C838.383 228.658 838.349 227.894 838.314 227.131C838.292 226.368 838.269 225.604 838.246 224.841V213.015H843.014V238ZM861.116 238L859.304 232.053H850.195L848.384 238H842.676L851.494 212.912H857.971L866.824 238H861.116ZM858.04 227.609L856.228 221.799C856.114 221.411 855.96 220.916 855.767 220.312C855.584 219.697 855.396 219.076 855.203 218.449C855.02 217.811 854.872 217.259 854.758 216.792C854.644 217.259 854.485 217.84 854.28 218.535C854.086 219.218 853.898 219.868 853.716 220.483C853.534 221.098 853.403 221.537 853.323 221.799L851.528 227.609H858.04ZM866.485 238V213.015H871.783V233.625H881.917V238H866.485ZM888.504 238V213.015H892.605V234.514H903.218V238H888.504ZM919.525 238L917.082 231.062H907.528L905.084 238H900.761L910.058 212.912H914.604L923.883 238H919.525ZM916.022 227.541L913.646 220.705C913.555 220.409 913.424 219.993 913.253 219.458C913.083 218.911 912.912 218.358 912.741 217.8C912.57 217.23 912.427 216.752 912.313 216.364C912.2 216.831 912.057 217.355 911.886 217.937C911.727 218.506 911.567 219.042 911.408 219.543C911.26 220.044 911.146 220.432 911.066 220.705L908.673 227.541H916.022ZM932.346 238H928.228V216.501H920.913V213.015H939.644V216.501H932.346V238ZM939.972 238V213.015H944.073V238H939.972ZM968.02 238H962.978L950.742 218.056H950.588C950.633 218.728 950.673 219.44 950.708 220.192C950.753 220.944 950.787 221.719 950.81 222.517C950.844 223.314 950.873 224.123 950.896 224.943V238H947.17V213.015H952.177L964.396 232.822H964.516C964.493 232.241 964.465 231.574 964.431 230.822C964.396 230.07 964.362 229.296 964.328 228.498C964.305 227.689 964.288 226.909 964.277 226.157V213.015H968.02V238ZM993.265 225.473C993.265 227.399 993.02 229.153 992.53 230.737C992.051 232.309 991.328 233.665 990.359 234.804C989.391 235.932 988.178 236.804 986.719 237.419C985.261 238.034 983.552 238.342 981.592 238.342C979.598 238.342 977.867 238.034 976.397 237.419C974.939 236.804 973.725 235.926 972.757 234.787C971.8 233.648 971.082 232.286 970.604 230.703C970.125 229.119 969.886 227.364 969.886 225.439C969.886 222.864 970.307 220.62 971.15 218.706C972.005 216.78 973.298 215.288 975.03 214.228C976.773 213.157 978.972 212.622 981.626 212.622C984.224 212.622 986.383 213.151 988.104 214.211C989.824 215.271 991.111 216.763 991.966 218.688C992.832 220.603 993.265 222.864 993.265 225.473ZM974.192 225.473C974.192 227.399 974.454 229.068 974.979 230.48C975.503 231.882 976.306 232.964 977.388 233.728C978.482 234.479 979.883 234.855 981.592 234.855C983.313 234.855 984.714 234.479 985.796 233.728C986.879 232.964 987.676 231.882 988.189 230.48C988.702 229.068 988.958 227.399 988.958 225.473C988.958 222.545 988.371 220.255 987.198 218.603C986.036 216.94 984.179 216.108 981.626 216.108C979.917 216.108 978.51 216.484 977.405 217.236C976.312 217.988 975.503 219.064 974.979 220.466C974.454 221.856 974.192 223.525 974.192 225.473ZM1010.61 238L1008.17 231.062H998.617L996.173 238H991.85L1001.15 212.912H1005.69L1014.97 238H1010.61ZM1007.11 227.541L1004.74 220.705C1004.64 220.409 1004.51 219.993 1004.34 219.458C1004.17 218.911 1004 218.358 1003.83 217.8C1003.66 217.23 1003.52 216.752 1003.4 216.364C1003.29 216.831 1003.15 217.355 1002.98 217.937C1002.82 218.506 1002.66 219.042 1002.5 219.543C1002.35 220.044 1002.23 220.432 1002.15 220.705L999.762 227.541H1007.11ZM1025.55 238L1018.36 217.133H1018.21C1018.24 217.6 1018.28 218.238 1018.33 219.047C1018.37 219.856 1018.41 220.722 1018.44 221.645C1018.48 222.568 1018.5 223.451 1018.5 224.294V238H1014.77V213.015H1020.53L1027.45 232.958H1027.55L1034.71 213.015H1040.46V238H1036.54V224.089C1036.54 223.326 1036.55 222.5 1036.58 221.611C1036.61 220.722 1036.65 219.879 1036.68 219.082C1036.73 218.284 1036.76 217.646 1036.78 217.167H1036.65L1029.18 238H1025.55ZM1057.69 238H1043.54V213.015H1057.69V216.467H1047.64V223.251H1057.05V226.687H1047.64V234.531H1057.69V238ZM1066.61 213.015C1068.76 213.015 1070.54 213.277 1071.94 213.801C1073.36 214.325 1074.4 215.122 1075.09 216.193C1075.78 217.264 1076.13 218.626 1076.13 220.278C1076.13 221.508 1075.9 222.556 1075.45 223.422C1074.99 224.288 1074.39 225.006 1073.65 225.576C1072.91 226.145 1072.12 226.601 1071.28 226.943L1078.37 238H1073.74L1067.7 227.985H1063.69V238H1059.59V213.015H1066.61ZM1066.34 216.433H1063.69V224.602H1066.53C1068.43 224.602 1069.81 224.248 1070.66 223.542C1071.53 222.836 1071.96 221.793 1071.96 220.415C1071.96 218.968 1071.5 217.942 1070.58 217.338C1069.66 216.735 1068.25 216.433 1066.34 216.433ZM1078.44 238V213.015H1082.54V238H1078.44ZM1096.29 216.142C1095.09 216.142 1094.02 216.359 1093.07 216.792C1092.14 217.224 1091.35 217.851 1090.7 218.671C1090.05 219.48 1089.55 220.466 1089.21 221.628C1088.87 222.779 1088.7 224.077 1088.7 225.524C1088.7 227.461 1088.97 229.13 1089.52 230.532C1090.06 231.922 1090.9 232.993 1092.01 233.745C1093.13 234.485 1094.54 234.855 1096.25 234.855C1097.31 234.855 1098.34 234.753 1099.34 234.548C1100.35 234.343 1101.38 234.064 1102.46 233.71V237.197C1101.44 237.596 1100.42 237.886 1099.38 238.068C1098.34 238.251 1097.15 238.342 1095.79 238.342C1093.24 238.342 1091.12 237.812 1089.43 236.752C1087.76 235.693 1086.5 234.2 1085.67 232.275C1084.85 230.349 1084.44 228.094 1084.44 225.507C1084.44 223.616 1084.7 221.884 1085.23 220.312C1085.75 218.74 1086.52 217.384 1087.52 216.245C1088.52 215.094 1089.76 214.211 1091.23 213.596C1092.71 212.969 1094.4 212.656 1096.3 212.656C1097.56 212.656 1098.79 212.798 1099.99 213.083C1101.21 213.356 1102.34 213.75 1103.38 214.262L1101.94 217.646C1101.08 217.236 1100.17 216.883 1099.23 216.586C1098.28 216.29 1097.3 216.142 1096.29 216.142ZM1119.8 238L1117.36 231.062H1107.81L1105.36 238H1101.04L1110.34 212.912H1114.88L1124.16 238H1119.8ZM1116.3 227.541L1113.93 220.705C1113.83 220.409 1113.7 219.993 1113.53 219.458C1113.36 218.911 1113.19 218.358 1113.02 217.8C1112.85 217.23 1112.71 216.752 1112.59 216.364C1112.48 216.831 1112.34 217.355 1112.17 217.937C1112.01 218.506 1111.85 219.042 1111.69 219.543C1111.54 220.044 1111.42 220.432 1111.35 220.705L1108.95 227.541H1116.3ZM1149.84 225.268C1149.84 228.082 1149.31 230.435 1148.27 232.326C1147.22 234.206 1145.7 235.625 1143.7 236.582C1141.71 237.527 1139.31 238 1136.49 238H1129.55V213.015H1137.24C1139.83 213.015 1142.06 213.482 1143.94 214.416C1145.82 215.339 1147.27 216.712 1148.3 218.535C1149.33 220.346 1149.84 222.591 1149.84 225.268ZM1145.57 225.388C1145.57 223.337 1145.24 221.651 1144.59 220.329C1143.95 219.007 1143.01 218.028 1141.75 217.39C1140.51 216.74 1138.98 216.416 1137.16 216.416H1133.65V234.565H1136.56C1139.58 234.565 1141.83 233.796 1143.33 232.258C1144.82 230.72 1145.57 228.43 1145.57 225.388ZM1167.21 238L1164.76 231.062H1155.21L1152.76 238H1148.44L1157.74 212.912H1162.28L1171.56 238H1167.21ZM1163.7 227.541L1161.33 220.705C1161.24 220.409 1161.1 219.993 1160.93 219.458C1160.76 218.911 1160.59 218.358 1160.42 217.8C1160.25 217.23 1160.11 216.752 1159.99 216.364C1159.88 216.831 1159.74 217.355 1159.57 217.937C1159.41 218.506 1159.25 219.042 1159.09 219.543C1158.94 220.044 1158.83 220.432 1158.75 220.705L1156.35 227.541H1163.7ZM1192.21 238H1187.17L1174.93 218.056H1174.78C1174.82 218.728 1174.86 219.44 1174.9 220.192C1174.94 220.944 1174.98 221.719 1175 222.517C1175.04 223.314 1175.06 224.123 1175.09 224.943V238H1171.36V213.015H1176.37L1188.59 232.822H1188.71C1188.68 232.241 1188.66 231.574 1188.62 230.822C1188.59 230.07 1188.55 229.296 1188.52 228.498C1188.5 227.689 1188.48 226.909 1188.47 226.157V213.015H1192.21V238ZM1211.05 238H1193.09V235.18L1205.8 216.501H1193.48V213.015H1210.71V215.817L1197.99 234.514H1211.05V238ZM1227.42 238L1224.98 231.062H1215.43L1212.98 238H1208.66L1217.96 212.912H1222.5L1231.78 238H1227.42ZM1223.92 227.541L1221.54 220.705C1221.45 220.409 1221.32 219.993 1221.15 219.458C1220.98 218.911 1220.81 218.358 1220.64 217.8C1220.47 217.23 1220.32 216.752 1220.21 216.364C1220.1 216.831 1219.95 217.355 1219.78 217.937C1219.62 218.506 1219.46 219.042 1219.31 219.543C1219.16 220.044 1219.04 220.432 1218.96 220.705L1216.57 227.541H1223.92Z" fill="white"/>
</g>
<g filter="url(#filter2_d_47_36)">
<path d="M477.893 378.062C477.893 379.543 477.534 380.83 476.816 381.924C476.099 383.018 475.05 383.861 473.672 384.453C472.305 385.046 470.641 385.342 468.682 385.342C467.816 385.342 466.967 385.285 466.135 385.171C465.315 385.057 464.523 384.892 463.76 384.675C463.008 384.447 462.29 384.168 461.606 383.838V378.916C462.791 379.44 464.022 379.913 465.298 380.334C466.574 380.756 467.839 380.967 469.092 380.967C469.958 380.967 470.653 380.853 471.177 380.625C471.712 380.397 472.1 380.084 472.339 379.685C472.578 379.286 472.698 378.831 472.698 378.318C472.698 377.691 472.487 377.156 472.065 376.711C471.644 376.267 471.063 375.851 470.322 375.464C469.593 375.076 468.767 374.661 467.844 374.216C467.263 373.943 466.631 373.612 465.947 373.225C465.264 372.826 464.614 372.342 463.999 371.772C463.384 371.203 462.877 370.514 462.478 369.705C462.091 368.884 461.897 367.904 461.897 366.765C461.897 365.273 462.239 363.997 462.922 362.937C463.606 361.877 464.58 361.069 465.845 360.51C467.121 359.941 468.625 359.656 470.356 359.656C471.655 359.656 472.891 359.81 474.065 360.117C475.25 360.413 476.486 360.846 477.773 361.416L476.064 365.535C474.914 365.068 473.883 364.709 472.971 364.458C472.06 364.196 471.131 364.065 470.186 364.065C469.525 364.065 468.961 364.173 468.494 364.39C468.027 364.595 467.673 364.891 467.434 365.278C467.195 365.654 467.075 366.093 467.075 366.594C467.075 367.187 467.246 367.688 467.588 368.098C467.941 368.497 468.465 368.884 469.16 369.26C469.867 369.636 470.744 370.075 471.792 370.576C473.068 371.18 474.156 371.812 475.056 372.473C475.968 373.123 476.668 373.892 477.158 374.78C477.648 375.658 477.893 376.751 477.893 378.062ZM493.312 385H478.922V360.015H493.312V364.355H484.22V369.841H492.679V374.182H484.22V380.625H493.312V385ZM505.62 385L499.604 365.398H499.45C499.473 365.865 499.507 366.571 499.553 367.517C499.61 368.451 499.661 369.448 499.707 370.508C499.752 371.567 499.775 372.524 499.775 373.379V385H495.041V360.015H502.253L508.166 379.121H508.269L514.541 360.015H521.752V385H516.813V373.174C516.813 372.388 516.825 371.482 516.848 370.457C516.882 369.431 516.922 368.457 516.967 367.534C517.013 366.6 517.047 365.899 517.07 365.432H516.916L510.473 385H505.62ZM524.559 385V360.015H529.856V385H524.559ZM554.811 385H548.078L537.208 366.099H537.055C537.1 366.885 537.14 367.677 537.174 368.474C537.208 369.272 537.243 370.069 537.277 370.867C537.311 371.653 537.345 372.445 537.379 373.242V385H532.646V360.015H539.328L550.18 378.728H550.299C550.277 377.953 550.248 377.184 550.214 376.421C550.18 375.658 550.146 374.894 550.111 374.131C550.089 373.368 550.066 372.604 550.043 371.841V360.015H554.811V385ZM572.913 385L571.101 379.053H561.992L560.181 385H554.473L563.291 359.912H569.768L578.621 385H572.913ZM569.836 374.609L568.025 368.799C567.911 368.411 567.757 367.916 567.563 367.312C567.381 366.697 567.193 366.076 567 365.449C566.817 364.811 566.669 364.259 566.555 363.792C566.441 364.259 566.282 364.84 566.077 365.535C565.883 366.218 565.695 366.868 565.513 367.483C565.33 368.098 565.199 368.537 565.12 368.799L563.325 374.609H569.836ZM585.562 360.015C587.83 360.015 589.698 360.288 591.168 360.835C592.649 361.382 593.749 362.208 594.466 363.313C595.184 364.418 595.543 365.814 595.543 367.5C595.543 368.639 595.326 369.636 594.894 370.491C594.461 371.345 593.891 372.069 593.185 372.661C592.478 373.254 591.715 373.738 590.895 374.114L598.243 385H592.364L586.4 375.413H583.58V385H578.282V360.015H585.562ZM585.187 364.355H583.58V371.106H585.289C587.044 371.106 588.297 370.815 589.049 370.234C589.812 369.642 590.194 368.776 590.194 367.637C590.194 366.452 589.784 365.609 588.963 365.107C588.154 364.606 586.896 364.355 585.187 364.355ZM597.888 385V360.015H603.186V385H597.888ZM628.653 372.473C628.653 374.399 628.414 376.153 627.935 377.737C627.457 379.309 626.727 380.665 625.748 381.804C624.779 382.944 623.549 383.821 622.056 384.436C620.564 385.04 618.798 385.342 616.758 385.342C614.719 385.342 612.953 385.04 611.46 384.436C609.968 383.821 608.732 382.944 607.752 381.804C606.784 380.665 606.06 379.303 605.582 377.72C605.103 376.136 604.864 374.376 604.864 372.439C604.864 369.853 605.285 367.603 606.128 365.688C606.983 363.763 608.293 362.271 610.059 361.211C611.825 360.151 614.069 359.622 616.792 359.622C619.504 359.622 621.731 360.151 623.475 361.211C625.229 362.271 626.528 363.763 627.371 365.688C628.226 367.614 628.653 369.875 628.653 372.473ZM610.418 372.473C610.418 374.216 610.634 375.72 611.067 376.985C611.512 378.238 612.201 379.207 613.135 379.89C614.069 380.562 615.277 380.898 616.758 380.898C618.262 380.898 619.481 380.562 620.416 379.89C621.35 379.207 622.028 378.238 622.449 376.985C622.882 375.72 623.099 374.216 623.099 372.473C623.099 369.853 622.609 367.791 621.629 366.287C620.649 364.783 619.037 364.031 616.792 364.031C615.3 364.031 614.081 364.373 613.135 365.056C612.201 365.728 611.512 366.697 611.067 367.961C610.634 369.215 610.418 370.719 610.418 372.473ZM652.657 360.015L643.343 385H638.609L647.923 360.015H652.657ZM674.44 363.142C673.244 363.142 672.173 363.359 671.227 363.792C670.293 364.224 669.501 364.851 668.852 365.671C668.202 366.48 667.707 367.466 667.365 368.628C667.023 369.779 666.852 371.077 666.852 372.524C666.852 374.461 667.125 376.13 667.672 377.532C668.219 378.922 669.051 379.993 670.167 380.745C671.284 381.485 672.697 381.855 674.406 381.855C675.465 381.855 676.496 381.753 677.499 381.548C678.502 381.343 679.538 381.064 680.609 380.71V384.197C679.595 384.596 678.57 384.886 677.533 385.068C676.496 385.251 675.3 385.342 673.944 385.342C671.392 385.342 669.273 384.812 667.587 383.752C665.912 382.693 664.659 381.2 663.827 379.275C663.007 377.349 662.597 375.094 662.597 372.507C662.597 370.616 662.859 368.884 663.383 367.312C663.907 365.74 664.67 364.384 665.673 363.245C666.675 362.094 667.912 361.211 669.381 360.596C670.862 359.969 672.554 359.656 674.457 359.656C675.71 359.656 676.941 359.798 678.148 360.083C679.368 360.356 680.495 360.75 681.532 361.262L680.097 364.646C679.231 364.236 678.325 363.883 677.379 363.586C676.434 363.29 675.454 363.142 674.44 363.142ZM682.476 385V360.015H686.577V381.514H697.19V385H682.476ZM713.497 385L711.053 378.062H701.5L699.056 385H694.732L704.029 359.912H708.575L717.855 385H713.497ZM709.994 374.541L707.618 367.705C707.527 367.409 707.396 366.993 707.225 366.458C707.054 365.911 706.883 365.358 706.712 364.8C706.542 364.23 706.399 363.752 706.285 363.364C706.171 363.831 706.029 364.355 705.858 364.937C705.698 365.506 705.539 366.042 705.379 366.543C705.231 367.044 705.117 367.432 705.038 367.705L702.645 374.541H709.994ZM732.077 378.198C732.077 379.679 731.713 380.955 730.983 382.026C730.266 383.097 729.229 383.918 727.873 384.487C726.529 385.057 724.922 385.342 723.054 385.342C722.142 385.342 721.271 385.291 720.439 385.188C719.607 385.085 718.821 384.937 718.081 384.744C717.351 384.539 716.685 384.294 716.081 384.009V380.146C717.095 380.591 718.229 380.995 719.482 381.36C720.735 381.713 722.011 381.89 723.31 381.89C724.37 381.89 725.247 381.753 725.942 381.479C726.648 381.195 727.172 380.796 727.514 380.283C727.856 379.759 728.027 379.15 728.027 378.455C728.027 377.714 727.827 377.087 727.429 376.575C727.03 376.062 726.426 375.595 725.617 375.173C724.82 374.74 723.817 374.279 722.609 373.789C721.789 373.459 721.003 373.083 720.251 372.661C719.51 372.24 718.85 371.744 718.269 371.174C717.688 370.605 717.226 369.932 716.884 369.158C716.554 368.372 716.389 367.449 716.389 366.389C716.389 364.976 716.725 363.769 717.397 362.766C718.081 361.764 719.038 360.994 720.268 360.459C721.51 359.924 722.957 359.656 724.609 359.656C725.919 359.656 727.15 359.792 728.3 360.066C729.462 360.339 730.602 360.727 731.718 361.228L730.419 364.526C729.394 364.105 728.397 363.769 727.429 363.518C726.472 363.267 725.492 363.142 724.489 363.142C723.623 363.142 722.889 363.273 722.285 363.535C721.681 363.797 721.219 364.167 720.9 364.646C720.593 365.113 720.439 365.671 720.439 366.321C720.439 367.05 720.616 367.665 720.969 368.167C721.333 368.656 721.892 369.106 722.644 369.517C723.407 369.927 724.387 370.382 725.583 370.884C726.962 371.453 728.129 372.052 729.086 372.678C730.055 373.305 730.795 374.057 731.308 374.934C731.821 375.8 732.077 376.888 732.077 378.198ZM747.547 385H733.396V360.015H747.547V363.467H737.498V370.251H746.915V373.687H737.498V381.531H747.547V385ZM763.871 378.198C763.871 379.679 763.507 380.955 762.777 382.026C762.06 383.097 761.023 383.918 759.667 384.487C758.323 385.057 756.716 385.342 754.848 385.342C753.936 385.342 753.065 385.291 752.233 385.188C751.401 385.085 750.615 384.937 749.875 384.744C749.145 384.539 748.479 384.294 747.875 384.009V380.146C748.889 380.591 750.023 380.995 751.276 381.36C752.529 381.713 753.805 381.89 755.104 381.89C756.164 381.89 757.041 381.753 757.736 381.479C758.442 381.195 758.966 380.796 759.308 380.283C759.65 379.759 759.821 379.15 759.821 378.455C759.821 377.714 759.621 377.087 759.223 376.575C758.824 376.062 758.22 375.595 757.411 375.173C756.614 374.74 755.611 374.279 754.403 373.789C753.583 373.459 752.797 373.083 752.045 372.661C751.304 372.24 750.644 371.744 750.062 371.174C749.481 370.605 749.02 369.932 748.678 369.158C748.348 368.372 748.183 367.449 748.183 366.389C748.183 364.976 748.519 363.769 749.191 362.766C749.875 361.764 750.832 360.994 752.062 360.459C753.304 359.924 754.751 359.656 756.403 359.656C757.713 359.656 758.944 359.792 760.094 360.066C761.256 360.339 762.396 360.727 763.512 361.228L762.213 364.526C761.188 364.105 760.191 363.769 759.223 363.518C758.266 363.267 757.286 363.142 756.283 363.142C755.417 363.142 754.682 363.273 754.079 363.535C753.475 363.797 753.013 364.167 752.694 364.646C752.387 365.113 752.233 365.671 752.233 366.321C752.233 367.05 752.41 367.665 752.763 368.167C753.127 368.656 753.686 369.106 754.438 369.517C755.201 369.927 756.181 370.382 757.377 370.884C758.756 371.453 759.923 372.052 760.88 372.678C761.849 373.305 762.589 374.057 763.102 374.934C763.615 375.8 763.871 376.888 763.871 378.198Z" fill="white"/>
</g>
<rect width="311" height="421" transform="translate(57)" fill="black"/>
<path d="M154.81 134.153C154.81 137.034 154.582 139.606 154.126 141.868C153.687 144.131 152.97 146.051 151.978 147.63C151.001 149.209 149.715 150.413 148.12 151.243C146.525 152.073 144.588 152.488 142.31 152.488C139.445 152.488 137.093 151.764 135.254 150.315C133.415 148.851 132.056 146.751 131.177 144.017C130.298 141.266 129.858 137.978 129.858 134.153C129.858 130.296 130.257 127 131.055 124.266C131.868 121.515 133.187 119.407 135.01 117.942C136.833 116.478 139.266 115.745 142.31 115.745C145.158 115.745 147.502 116.478 149.341 117.942C151.196 119.391 152.572 121.491 153.467 124.241C154.362 126.976 154.81 130.28 154.81 134.153ZM137.354 134.153C137.354 136.871 137.5 139.142 137.793 140.965C138.102 142.771 138.615 144.131 139.331 145.042C140.047 145.953 141.04 146.409 142.31 146.409C143.563 146.409 144.548 145.962 145.264 145.066C145.996 144.155 146.517 142.796 146.826 140.989C147.135 139.166 147.29 136.888 147.29 134.153C147.29 131.435 147.135 129.165 146.826 127.342C146.517 125.519 145.996 124.152 145.264 123.24C144.548 122.312 143.563 121.849 142.31 121.849C141.04 121.849 140.047 122.312 139.331 123.24C138.615 124.152 138.102 125.519 137.793 127.342C137.5 129.165 137.354 131.435 137.354 134.153ZM184.424 144.603H180.127V152H172.754V144.603H157.52V139.354L173.169 116.307H180.127V138.743H184.424V144.603ZM172.754 138.743V132.688C172.754 132.119 172.762 131.443 172.778 130.662C172.811 129.881 172.843 129.1 172.876 128.318C172.909 127.537 172.941 126.845 172.974 126.243C173.022 125.625 173.055 125.193 173.071 124.949H172.876C172.567 125.617 172.241 126.268 171.899 126.902C171.558 127.521 171.159 128.172 170.703 128.855L164.16 138.743H172.754ZM198.267 124.705H206.421L211.572 140.062C211.735 140.55 211.873 141.046 211.987 141.551C212.101 142.055 212.199 142.576 212.28 143.113C212.362 143.65 212.427 144.212 212.476 144.798H212.622C212.72 143.919 212.85 143.097 213.013 142.332C213.192 141.567 213.411 140.81 213.672 140.062L218.726 124.705H226.709L215.161 155.491C214.461 157.379 213.55 158.95 212.427 160.203C211.304 161.473 210.01 162.425 208.545 163.06C207.096 163.694 205.501 164.012 203.76 164.012C202.913 164.012 202.181 163.963 201.562 163.865C200.944 163.784 200.415 163.694 199.976 163.597V157.688C200.317 157.77 200.749 157.843 201.27 157.908C201.79 157.973 202.336 158.006 202.905 158.006C203.947 158.006 204.842 157.786 205.591 157.347C206.34 156.907 206.966 156.313 207.471 155.564C207.975 154.832 208.374 154.026 208.667 153.147L209.106 151.805L198.267 124.705ZM266.479 134.153C266.479 137.034 266.252 139.606 265.796 141.868C265.356 144.131 264.64 146.051 263.647 147.63C262.671 149.209 261.385 150.413 259.79 151.243C258.195 152.073 256.258 152.488 253.979 152.488C251.115 152.488 248.763 151.764 246.924 150.315C245.085 148.851 243.726 146.751 242.847 144.017C241.968 141.266 241.528 137.978 241.528 134.153C241.528 130.296 241.927 127 242.725 124.266C243.538 121.515 244.857 119.407 246.68 117.942C248.503 116.478 250.936 115.745 253.979 115.745C256.828 115.745 259.172 116.478 261.011 117.942C262.866 119.391 264.242 121.491 265.137 124.241C266.032 126.976 266.479 130.28 266.479 134.153ZM249.023 134.153C249.023 136.871 249.17 139.142 249.463 140.965C249.772 142.771 250.285 144.131 251.001 145.042C251.717 145.953 252.71 146.409 253.979 146.409C255.233 146.409 256.217 145.962 256.934 145.066C257.666 144.155 258.187 142.796 258.496 140.989C258.805 139.166 258.96 136.888 258.96 134.153C258.96 131.435 258.805 129.165 258.496 127.342C258.187 125.519 257.666 124.152 256.934 123.24C256.217 122.312 255.233 121.849 253.979 121.849C252.71 121.849 251.717 122.312 251.001 123.24C250.285 124.152 249.772 125.519 249.463 127.342C249.17 129.165 249.023 131.435 249.023 134.153ZM283.325 129.197C285.506 129.197 287.443 129.612 289.136 130.442C290.845 131.272 292.188 132.493 293.164 134.104C294.141 135.716 294.629 137.701 294.629 140.062C294.629 142.633 294.092 144.855 293.018 146.727C291.96 148.582 290.373 150.006 288.257 150.999C286.157 151.992 283.537 152.488 280.396 152.488C278.524 152.488 276.758 152.326 275.098 152C273.454 151.691 272.013 151.211 270.776 150.56V144.041C272.013 144.692 273.494 145.245 275.22 145.701C276.961 146.141 278.597 146.36 280.127 146.36C281.624 146.36 282.886 146.165 283.911 145.774C284.937 145.368 285.71 144.749 286.23 143.919C286.768 143.073 287.036 141.998 287.036 140.696C287.036 138.955 286.45 137.62 285.278 136.692C284.106 135.765 282.308 135.301 279.883 135.301C278.955 135.301 277.987 135.39 276.978 135.569C275.985 135.748 275.155 135.927 274.487 136.106L271.484 134.495L272.827 116.307H292.188V122.703H279.443L278.784 129.71C279.338 129.596 279.94 129.482 280.591 129.368C281.242 129.254 282.153 129.197 283.325 129.197ZM158.701 187.473C158.701 189.399 158.456 191.153 157.966 192.737C157.476 194.309 156.747 195.665 155.779 196.804C154.822 197.932 153.631 198.804 152.207 199.419C150.783 200.034 149.131 200.342 147.251 200.342C145.314 200.342 143.622 200.034 142.175 199.419C140.74 198.804 139.543 197.926 138.586 196.787C137.641 195.648 136.929 194.286 136.45 192.703C135.983 191.119 135.75 189.364 135.75 187.439C135.75 184.887 136.171 182.648 137.014 180.723C137.857 178.797 139.133 177.299 140.842 176.228C142.563 175.157 144.716 174.622 147.302 174.622C149.775 174.622 151.854 175.151 153.54 176.211C155.238 177.271 156.519 178.763 157.385 180.688C158.263 182.603 158.701 184.864 158.701 187.473ZM138.809 187.473C138.809 189.592 139.111 191.427 139.714 192.976C140.318 194.526 141.241 195.722 142.483 196.565C143.736 197.408 145.326 197.83 147.251 197.83C149.188 197.83 150.771 197.408 152.002 196.565C153.244 195.722 154.161 194.526 154.753 192.976C155.346 191.427 155.642 189.592 155.642 187.473C155.642 184.249 154.964 181.731 153.608 179.919C152.264 178.097 150.162 177.185 147.302 177.185C145.365 177.185 143.77 177.601 142.517 178.433C141.264 179.264 140.33 180.449 139.714 181.987C139.111 183.514 138.809 185.343 138.809 187.473ZM174.954 177.219C173.575 177.219 172.333 177.458 171.228 177.937C170.134 178.404 169.2 179.088 168.425 179.988C167.662 180.876 167.075 181.953 166.665 183.218C166.255 184.482 166.05 185.907 166.05 187.49C166.05 189.587 166.375 191.41 167.024 192.959C167.685 194.497 168.665 195.688 169.963 196.531C171.274 197.374 172.909 197.795 174.868 197.795C175.985 197.795 177.033 197.704 178.013 197.522C179.004 197.328 179.967 197.089 180.901 196.804V199.333C179.989 199.675 179.032 199.926 178.03 200.085C177.027 200.256 175.837 200.342 174.458 200.342C171.917 200.342 169.792 199.818 168.083 198.77C166.386 197.71 165.11 196.217 164.255 194.292C163.412 192.367 162.991 190.094 162.991 187.473C162.991 185.582 163.253 183.856 163.777 182.295C164.312 180.723 165.087 179.367 166.101 178.228C167.126 177.088 168.38 176.211 169.861 175.596C171.353 174.969 173.062 174.656 174.988 174.656C176.252 174.656 177.472 174.781 178.645 175.032C179.819 175.282 180.878 175.641 181.824 176.108L180.662 178.569C179.864 178.205 178.987 177.891 178.03 177.629C177.084 177.356 176.059 177.219 174.954 177.219ZM193.992 200H191.069V177.578H183.208V175.015H201.819V177.578H193.992V200ZM224.497 175.015V191.182C224.497 192.948 224.138 194.52 223.42 195.898C222.714 197.277 221.643 198.365 220.208 199.163C218.772 199.949 216.972 200.342 214.807 200.342C211.72 200.342 209.367 199.504 207.749 197.83C206.143 196.155 205.339 193.916 205.339 191.113V175.015H208.262V191.199C208.262 193.318 208.82 194.953 209.937 196.104C211.064 197.254 212.745 197.83 214.978 197.83C216.505 197.83 217.752 197.556 218.721 197.009C219.701 196.451 220.424 195.676 220.891 194.685C221.37 193.682 221.609 192.526 221.609 191.216V175.015H224.497ZM231.128 175.015H238.203C241.325 175.015 243.672 175.482 245.244 176.416C246.816 177.35 247.603 178.94 247.603 181.184C247.603 182.153 247.415 183.024 247.039 183.799C246.674 184.562 246.139 185.194 245.432 185.696C244.726 186.197 243.854 186.545 242.817 186.738V186.909C243.911 187.08 244.88 187.393 245.723 187.849C246.566 188.305 247.227 188.943 247.705 189.763C248.184 190.583 248.423 191.626 248.423 192.891C248.423 194.429 248.064 195.728 247.346 196.787C246.64 197.847 245.637 198.65 244.338 199.197C243.04 199.732 241.501 200 239.724 200H231.128V175.015ZM234.033 185.73H238.818C240.994 185.73 242.498 185.371 243.33 184.653C244.173 183.936 244.595 182.887 244.595 181.509C244.595 180.085 244.093 179.059 243.091 178.433C242.1 177.806 240.516 177.493 238.34 177.493H234.033V185.73ZM234.033 188.174V197.522H239.229C241.45 197.522 243.022 197.089 243.945 196.223C244.868 195.346 245.33 194.167 245.33 192.686C245.33 191.74 245.119 190.931 244.697 190.259C244.287 189.587 243.615 189.074 242.681 188.721C241.758 188.356 240.522 188.174 238.972 188.174H234.033ZM260.505 175.015C262.556 175.015 264.248 175.271 265.581 175.784C266.925 176.285 267.928 177.054 268.589 178.091C269.25 179.128 269.58 180.449 269.58 182.056C269.58 183.377 269.341 184.482 268.862 185.371C268.384 186.248 267.757 186.96 266.982 187.507C266.208 188.054 265.382 188.476 264.504 188.772L271.357 200H267.974L261.855 189.575H256.66V200H253.755V175.015H260.505ZM260.334 177.527H256.66V187.114H260.625C262.664 187.114 264.163 186.698 265.12 185.867C266.088 185.035 266.572 183.81 266.572 182.192C266.572 180.495 266.06 179.293 265.034 178.586C264.02 177.88 262.454 177.527 260.334 177.527ZM289.268 200H275.356V175.015H289.268V177.578H278.262V185.662H288.635V188.191H278.262V197.437H289.268V200Z" fill="white"/>
<g filter="url(#filter3_i_47_36)">
<path d="M178.179 269H149.685V262.018L159.272 252.323C161.26 250.246 162.799 248.581 163.892 247.328C165.002 246.074 165.78 245.009 166.228 244.132C166.676 243.255 166.899 242.341 166.899 241.393C166.899 240.229 166.523 239.387 165.771 238.868C165.02 238.349 164.133 238.089 163.113 238.089C161.877 238.089 160.624 238.447 159.353 239.164C158.1 239.862 156.676 240.9 155.083 242.279L149.255 235.458C150.437 234.401 151.69 233.399 153.015 232.45C154.34 231.483 155.907 230.695 157.715 230.086C159.523 229.478 161.725 229.173 164.321 229.173C166.989 229.173 169.299 229.639 171.25 230.57C173.219 231.501 174.741 232.781 175.815 234.41C176.89 236.021 177.427 237.857 177.427 239.916C177.427 242.189 177.006 244.221 176.165 246.012C175.341 247.784 174.097 249.566 172.432 251.356C170.767 253.128 168.69 255.143 166.201 257.398L163.328 259.977V260.245H178.179V269ZM210.566 249.422C210.566 252.573 210.316 255.393 209.814 257.882C209.313 260.353 208.507 262.456 207.397 264.193C206.305 265.93 204.855 267.254 203.047 268.167C201.239 269.081 199.019 269.537 196.387 269.537C193.11 269.537 190.425 268.74 188.33 267.147C186.235 265.536 184.687 263.235 183.684 260.245C182.699 257.237 182.207 253.63 182.207 249.422C182.207 245.179 182.655 241.554 183.55 238.546C184.463 235.52 185.958 233.202 188.035 231.59C190.111 229.979 192.896 229.173 196.387 229.173C199.663 229.173 202.34 229.979 204.417 231.59C206.511 233.184 208.06 235.493 209.062 238.519C210.065 241.527 210.566 245.161 210.566 249.422ZM192.761 249.422C192.761 251.983 192.851 254.131 193.03 255.868C193.227 257.604 193.585 258.911 194.104 259.789C194.641 260.648 195.402 261.078 196.387 261.078C197.371 261.078 198.123 260.648 198.643 259.789C199.162 258.911 199.52 257.613 199.717 255.895C199.914 254.158 200.012 252 200.012 249.422C200.012 246.826 199.914 244.66 199.717 242.923C199.52 241.187 199.162 239.88 198.643 239.002C198.123 238.107 197.371 237.66 196.387 237.66C195.402 237.66 194.641 238.107 194.104 239.002C193.585 239.88 193.227 241.187 193.03 242.923C192.851 244.66 192.761 246.826 192.761 249.422ZM242.632 269H214.138V262.018L223.726 252.323C225.713 250.246 227.253 248.581 228.345 247.328C229.455 246.074 230.234 245.009 230.681 244.132C231.129 243.255 231.353 242.341 231.353 241.393C231.353 240.229 230.977 239.387 230.225 238.868C229.473 238.349 228.586 238.089 227.566 238.089C226.331 238.089 225.077 238.447 223.806 239.164C222.553 239.862 221.13 240.9 219.536 242.279L213.708 235.458C214.89 234.401 216.143 233.399 217.468 232.45C218.793 231.483 220.36 230.695 222.168 230.086C223.976 229.478 226.178 229.173 228.774 229.173C231.442 229.173 233.752 229.639 235.703 230.57C237.673 231.501 239.194 232.781 240.269 234.41C241.343 236.021 241.88 237.857 241.88 239.916C241.88 242.189 241.459 244.221 240.618 246.012C239.794 247.784 238.55 249.566 236.885 251.356C235.22 253.128 233.143 255.143 230.654 257.398L227.781 259.977V260.245H242.632V269ZM262.559 243.272C264.743 243.272 266.73 243.765 268.521 244.75C270.311 245.734 271.743 247.167 272.817 249.046C273.892 250.926 274.429 253.218 274.429 255.921C274.429 258.84 273.838 261.319 272.656 263.36C271.493 265.383 269.729 266.923 267.366 267.979C265.02 269.018 262.057 269.537 258.477 269.537C256.203 269.537 254.126 269.358 252.246 269C250.384 268.66 248.719 268.132 247.251 267.416V258.714C248.63 259.341 250.286 259.914 252.219 260.433C254.171 260.934 255.961 261.185 257.59 261.185C258.897 261.185 260.007 260.997 260.92 260.621C261.833 260.245 262.523 259.69 262.988 258.956C263.472 258.222 263.713 257.318 263.713 256.244C263.713 254.758 263.176 253.594 262.102 252.752C261.028 251.893 259.399 251.463 257.214 251.463C256.23 251.463 255.263 251.562 254.314 251.759C253.365 251.956 252.533 252.171 251.816 252.403L247.922 250.47L249.399 229.737H271.797V238.573H258.423L257.939 243.756C258.512 243.648 259.094 243.541 259.685 243.434C260.294 243.326 261.252 243.272 262.559 243.272Z" fill="#E30613"/>
</g>
<defs>
<filter id="filter0_d_47_36" x="458.454" y="49.6586" width="951.776" height="33.7202" filterUnits="userSpaceOnUse" color-interpolation-filters="sRGB">
<feFlood flood-opacity="0" result="BackgroundImageFix"/>
<feColorMatrix in="SourceAlpha" type="matrix" values="0 0 0 0 0 0 0 0 0 0 0 0 0 0 0 0 0 0 127 0" result="hardAlpha"/>
<feOffset dy="4"/>
<feGaussianBlur stdDeviation="2"/>
<feComposite in2="hardAlpha" operator="out"/>
<feColorMatrix type="matrix" values="0 0 0 0 0 0 0 0 0 0 0 0 0 0 0 0 0 0 0.25 0"/>
<feBlend mode="normal" in2="BackgroundImageFix" result="effect1_dropShadow_47_36"/>
<feBlend mode="normal" in="SourceGraphic" in2="effect1_dropShadow_47_36" result="shape"/>
</filter>
<filter id="filter1_d_47_36" x="458.034" y="212.622" width="777.747" height="33.7202" filterUnits="userSpaceOnUse" color-interpolation-filters="sRGB">
<feFlood flood-opacity="0" result="BackgroundImageFix"/>
<feColorMatrix in="SourceAlpha" type="matrix" values="0 0 0 0 0 0 0 0 0 0 0 0 0 0 0 0 0 0 127 0" result="hardAlpha"/>
<feOffset dy="4"/>
<feGaussianBlur stdDeviation="2"/>
<feComposite in2="hardAlpha" operator="out"/>
<feColorMatrix type="matrix" values="0 0 0 0 0 0 0 0 0 0 0 0 0 0 0 0 0 0 0.25 0"/>
<feBlend mode="normal" in2="BackgroundImageFix" result="effect1_dropShadow_47_36"/>
<feBlend mode="normal" in="SourceGraphic" in2="effect1_dropShadow_47_36" result="shape"/>
</filter>
<filter id="filter2_d_47_36" x="457.606" y="359.622" width="310.265" height="33.7202" filterUnits="userSpaceOnUse" color-interpolation-filters="sRGB">
<feFlood flood-opacity="0" result="BackgroundImageFix"/>
<feColorMatrix in="SourceAlpha" type="matrix" values="0 0 0 0 0 0 0 0 0 0 0 0 0 0 0 0 0 0 127 0" result="hardAlpha"/>
<feOffset dy="4"/>
<feGaussianBlur stdDeviation="2"/>
<feComposite in2="hardAlpha" operator="out"/>
<feColorMatrix type="matrix" values="0 0 0 0 0 0 0 0 0 0 0 0 0 0 0 0 0 0 0.25 0"/>
<feBlend mode="normal" in2="BackgroundImageFix" result="effect1_dropShadow_47_36"/>
<feBlend mode="normal" in="SourceGraphic" in2="effect1_dropShadow_47_36" result="shape"/>
</filter>
<filter id="filter3_i_47_36" x="149.255" y="229.173" width="125.173" height="44.3638" filterUnits="userSpaceOnUse" color-interpolation-filters="sRGB">
<feFlood flood-opacity="0" result="BackgroundImageFix"/>
<feBlend mode="normal" in="SourceGraphic" in2="BackgroundImageFix" result="shape"/>
<feColorMatrix in="SourceAlpha" type="matrix" values="0 0 0 0 0 0 0 0 0 0 0 0 0 0 0 0 0 0 127 0" result="hardAlpha"/>
<feOffset dy="4"/>
<feGaussianBlur stdDeviation="2"/>
<feComposite in2="hardAlpha" operator="arithmetic" k2="-1" k3="1"/>
<feColorMatrix type="matrix" values="0 0 0 0 0 0 0 0 0 0 0 0 0 0 0 0 0 0 0.25 0"/>
<feBlend mode="normal" in2="shape" result="effect1_innerShadow_47_36"/>
</filter>
</defs>
</svg>
